<?xml version="1.0" standalone="no"?>
<!DOCTYPE svg PUBLIC "-//W3C//DTD SVG 20010904//EN"
 "http://www.w3.org/TR/2001/REC-SVG-20010904/DTD/svg10.dtd">
<svg version="1.0" xmlns="http://www.w3.org/2000/svg"
 width="5000.000000pt" height="5000.000000pt" viewBox="0 0 5000.000000 5000.000000"
 preserveAspectRatio="xMidYMid meet">
<metadata>
Created by potrace 1.11, written by Peter Selinger 2001-2013
</metadata>
<g transform="translate(0.000000,5000.000000) scale(0.100000,-0.100000)"
fill="#000000" stroke="none">
<path d="M32440 45743 c-19 -3 -39 -9 -44 -14 -6 -5 -38 -9 -72 -9 -42 0 -65
-5 -74 -15 -7 -8 -21 -15 -31 -15 -11 0 -19 -7 -19 -15 0 -11 -12 -15 -44 -15
-25 0 -47 -4 -50 -9 -3 -4 -123 -10 -266 -13 -189 -4 -264 -9 -275 -18 -14
-11 -46 -16 -142 -19 -13 -1 -23 -7 -23 -16 0 -17 -31 -20 -47 -4 -8 8 -13 8
-17 0 -12 -18 -39 -13 -32 5 4 10 -1 22 -11 29 -15 11 -16 15 -3 31 14 18 14
18 -3 5 -16 -12 -21 -11 -45 12 -26 25 -35 27 -110 27 -64 0 -84 -3 -88 -15
-5 -11 -22 -15 -69 -15 -35 0 -67 -4 -70 -10 -3 -5 -21 -10 -38 -10 -18 -1
-43 -7 -57 -15 -39 -22 -97 -19 -111 6 -10 19 -17 21 -69 15 -42 -5 -59 -3
-62 6 -6 18 -123 21 -139 2 -7 -9 -31 -14 -63 -14 -28 -1 -69 -8 -91 -16 -22
-8 -62 -17 -90 -20 -27 -3 -57 -12 -66 -20 -8 -8 -23 -14 -32 -14 -9 0 -19 -4
-22 -10 -3 -5 -22 -10 -41 -10 -19 0 -42 -8 -52 -17 -19 -20 -58 -24 -70 -8
-4 6 -19 11 -34 12 -14 0 -44 14 -65 31 -32 25 -47 31 -92 31 -30 0 -60 -3
-65 -7 -6 -3 -24 -5 -40 -3 -21 2 -34 -4 -47 -20 -17 -23 -22 -24 -177 -24
-104 0 -164 4 -173 11 -17 14 -166 17 -174 4 -4 -6 -14 -10 -23 -10 -9 0 -28
-6 -42 -13 -15 -8 -48 -17 -74 -20 -27 -4 -54 -12 -61 -17 -7 -6 -52 -13 -101
-16 -49 -3 -96 -8 -104 -11 -8 -4 -44 -12 -80 -19 -52 -9 -70 -9 -92 1 -30 14
-38 11 -38 -17 0 -12 -5 -18 -12 -15 -7 2 -12 16 -10 31 l3 26 -99 0 c-76 0
-102 -4 -112 -15 -7 -8 -20 -15 -29 -15 -9 0 -42 -14 -74 -31 -38 -20 -79 -32
-115 -36 -32 -2 -67 -9 -79 -15 -17 -8 -29 -8 -45 0 -33 16 -90 21 -111 10
-13 -7 -19 -4 -24 9 -13 36 -42 55 -81 52 -21 -2 -43 1 -50 5 -7 4 -20 2 -29
-6 -9 -7 -17 -11 -17 -9 -1 3 -13 -3 -28 -13 -15 -10 -32 -15 -37 -12 -10 7
-15 5 -79 -27 -19 -9 -46 -17 -62 -17 -16 0 -32 -5 -35 -11 -6 -9 -38 -25 -75
-37 -8 -2 -28 -4 -45 -4 -203 5 -373 -6 -398 -26 -7 -6 -29 -13 -49 -17 -21
-4 -42 -13 -49 -21 -7 -8 -30 -14 -55 -14 -23 0 -46 -4 -49 -10 -3 -5 -19 -10
-36 -10 -16 0 -29 5 -29 10 0 6 -41 10 -104 10 -59 0 -108 -4 -111 -10 -3 -5
-33 -10 -65 -10 -32 0 -61 -4 -64 -9 -4 -5 -30 -12 -59 -16 -28 -4 -57 -12
-64 -17 -7 -5 -17 -7 -22 -4 -5 4 -12 2 -16 -4 -3 -5 -19 -10 -34 -10 -15 0
-36 -7 -47 -15 -10 -8 -33 -15 -51 -15 -17 0 -34 -4 -37 -9 -3 -5 -43 -12 -88
-17 -46 -4 -90 -8 -98 -9 -9 0 -20 -4 -26 -7 -5 -4 -23 -5 -39 -3 -17 1 -35
-1 -40 -5 -6 -5 -25 -2 -44 7 -27 14 -38 14 -67 4 -19 -7 -38 -10 -44 -6 -5 3
-18 1 -30 -5 -11 -5 -28 -14 -38 -19 -10 -5 -46 -12 -80 -16 -34 -4 -65 -11
-68 -16 -3 -6 -14 -7 -24 -4 -10 3 -21 1 -25 -5 -8 -13 -142 -13 -150 0 -3 5
-19 7 -36 3 -17 -3 -40 -1 -52 5 -34 16 -89 21 -117 9 -14 -6 -30 -9 -37 -8
-6 1 -14 -3 -18 -9 -3 -5 -27 -10 -52 -10 -35 0 -55 -7 -81 -27 -33 -25 -42
-26 -184 -31 -82 -3 -151 -9 -154 -13 -3 -5 -20 -9 -38 -9 -18 0 -41 -7 -52
-15 -13 -10 -46 -14 -109 -15 -60 0 -100 -5 -119 -15 -15 -8 -32 -12 -37 -9
-5 3 -15 2 -21 -3 -20 -12 -81 -33 -99 -33 -9 0 -19 -6 -22 -14 -3 -8 -14 -15
-24 -15 -10 0 -38 -4 -63 -8 -64 -12 -160 -4 -160 12 0 8 -7 11 -20 8 -11 -3
-20 0 -20 6 0 7 -23 11 -62 10 -93 0 -155 -13 -189 -38 -17 -13 -36 -20 -43
-18 -14 5 -50 -6 -118 -36 -21 -10 -44 -17 -52 -17 -8 0 -18 -4 -21 -10 -3 -5
-27 -10 -52 -10 -26 0 -53 -6 -62 -14 -12 -11 -55 -16 -151 -21 -120 -5 -141
-9 -190 -33 -30 -15 -56 -30 -58 -34 -2 -5 -20 -8 -40 -8 -20 0 -55 -5 -77
-11 -22 -6 -57 -10 -78 -9 -22 0 -44 -3 -50 -8 -19 -14 -91 -34 -113 -31 -10
1 -32 -4 -49 -11 -16 -7 -40 -12 -52 -11 -11 1 -24 -3 -28 -8 -3 -6 -22 -11
-42 -11 -23 0 -48 -9 -69 -25 -18 -14 -44 -25 -59 -25 -14 0 -39 -7 -55 -15
-17 -9 -30 -12 -30 -8 0 4 -5 2 -12 -5 -7 -7 -24 -12 -38 -12 -14 0 -31 -5
-37 -11 -6 -6 -38 -13 -72 -16 -50 -5 -62 -3 -67 11 -8 21 -110 22 -150 1 -16
-8 -36 -15 -45 -15 -8 0 -20 -5 -25 -10 -6 -6 -28 -11 -50 -11 -21 -1 -49 -8
-61 -15 -28 -17 -87 -18 -113 -2 -15 10 -24 10 -39 1 -10 -6 -74 -15 -142 -19
-68 -3 -129 -11 -136 -16 -7 -5 -25 -9 -40 -7 -15 1 -35 -1 -43 -4 -19 -7 -97
-17 -170 -22 -56 -3 -81 -9 -112 -26 -10 -5 -37 -9 -60 -9 -24 0 -52 -7 -62
-15 -11 -8 -31 -15 -45 -15 -14 -1 -44 -7 -66 -15 -28 -10 -43 -11 -52 -3 -9
7 -17 7 -25 1 -7 -6 -43 -13 -81 -16 -37 -2 -74 -10 -82 -17 -8 -7 -24 -10
-36 -7 -11 3 -35 -3 -55 -15 -19 -11 -41 -18 -49 -14 -8 3 -27 -1 -42 -9 -15
-8 -36 -15 -45 -15 -9 0 -19 -4 -23 -9 -3 -6 -26 -13 -51 -17 -26 -4 -54 -15
-62 -25 -9 -11 -29 -19 -45 -19 -15 0 -45 -9 -65 -20 -46 -24 -74 -34 -89 -31
-6 1 -14 -3 -18 -9 -3 -5 -15 -10 -26 -10 -11 0 -41 -10 -67 -21 -26 -12 -48
-21 -49 -21 -2 1 -19 -7 -38 -18 -20 -11 -48 -20 -63 -20 -15 0 -40 -7 -56
-15 -16 -9 -35 -14 -43 -11 -7 3 -15 1 -18 -4 -4 -6 -19 -10 -36 -10 -16 0
-29 -4 -29 -9 0 -4 -21 -11 -46 -15 -26 -3 -54 -12 -62 -18 -10 -9 -70 -13
-211 -13 -204 0 -205 0 -270 -47 -13 -10 -32 -18 -42 -18 -17 0 -79 -29 -89
-41 -3 -4 -25 -10 -50 -14 -25 -4 -49 -11 -55 -15 -5 -4 -58 -10 -116 -12 -68
-2 -112 -8 -122 -17 -9 -7 -21 -10 -26 -7 -5 4 -12 2 -16 -4 -3 -5 -18 -10
-33 -10 -15 0 -36 -7 -46 -15 -11 -8 -34 -15 -52 -15 -18 0 -36 -5 -39 -10 -4
-6 -30 -11 -58 -10 -29 0 -72 -5 -97 -11 -25 -7 -78 -13 -118 -15 -41 -1 -76
-5 -79 -8 -4 -3 -19 -6 -34 -6 -15 0 -31 -5 -34 -10 -4 -6 -11 -8 -16 -5 -5 4
-24 -4 -41 -17 -43 -31 -69 -46 -90 -54 -10 -3 -18 -10 -18 -15 0 -8 -12 -15
-97 -58 -26 -14 -51 -29 -54 -34 -3 -4 -26 -11 -50 -14 -24 -3 -48 -9 -54 -13
-5 -4 -30 -11 -55 -15 -25 -4 -50 -12 -57 -17 -6 -5 -17 -8 -25 -7 -7 1 -20 0
-28 -3 -83 -29 -121 -38 -152 -38 -20 0 -39 -4 -42 -9 -3 -5 -23 -12 -43 -16
-21 -4 -43 -11 -49 -16 -6 -5 -33 -12 -60 -15 -27 -4 -54 -10 -59 -15 -17 -13
-97 -38 -145 -44 -25 -4 -54 -11 -65 -15 -11 -5 -78 -11 -148 -12 -84 -2 -130
-7 -135 -15 -4 -6 -21 -15 -37 -19 -17 -4 -46 -18 -67 -30 -20 -13 -60 -26
-90 -30 -29 -4 -57 -10 -63 -14 -10 -8 -47 -17 -100 -25 -16 -2 -48 -9 -70
-14 -22 -6 -72 -11 -110 -11 -39 0 -75 -4 -81 -10 -5 -5 -36 -12 -69 -16 -40
-4 -71 -15 -92 -30 -18 -14 -36 -24 -40 -23 -14 4 -63 -20 -63 -30 0 -5 -10
-11 -23 -15 -13 -3 -34 -15 -47 -26 -13 -11 -31 -20 -41 -20 -10 0 -21 -5 -24
-10 -4 -6 -22 -17 -41 -25 -19 -8 -34 -19 -34 -24 0 -6 -6 -11 -14 -11 -7 0
-19 -7 -26 -15 -7 -8 -25 -15 -41 -15 -17 0 -29 -5 -29 -13 0 -17 -73 -47
-114 -47 -19 0 -37 -4 -40 -9 -3 -4 -43 -11 -88 -15 -62 -5 -99 -15 -148 -38
-36 -17 -74 -35 -85 -39 -11 -5 -110 -10 -220 -12 -183 -3 -203 -5 -239 -25
-22 -12 -44 -26 -50 -32 -5 -5 -22 -10 -37 -10 -15 0 -31 -4 -34 -10 -3 -5
-16 -10 -28 -10 -13 0 -31 -6 -42 -14 -11 -7 -40 -16 -65 -20 -24 -4 -49 -11
-55 -16 -6 -5 -62 -11 -124 -14 -90 -4 -123 -10 -160 -28 -25 -12 -53 -23 -61
-25 -8 -1 -22 -10 -30 -20 -15 -18 -45 -36 -65 -38 -17 -2 -59 -27 -75 -45 -8
-9 -26 -21 -40 -25 -14 -4 -34 -14 -45 -21 -11 -8 -25 -14 -32 -14 -6 0 -38
-17 -70 -38 -32 -21 -69 -43 -83 -50 -39 -18 -64 -36 -73 -49 -5 -9 -33 -13
-81 -13 -40 0 -76 -3 -80 -7 -4 -5 -35 -13 -69 -20 -88 -17 -157 -36 -157 -44
0 -4 -14 -10 -30 -14 -17 -4 -30 -11 -30 -16 0 -5 -12 -9 -26 -9 -14 0 -40 -6
-57 -14 -40 -18 -109 -34 -209 -49 -42 -7 -83 -18 -90 -24 -6 -7 -20 -13 -29
-13 -9 0 -22 -7 -29 -15 -7 -8 -27 -15 -46 -15 -18 0 -35 -4 -38 -9 -3 -4 -40
-11 -81 -14 -42 -3 -82 -10 -88 -15 -7 -5 -42 -13 -79 -17 -37 -3 -70 -10 -73
-15 -3 -5 -24 -11 -48 -15 -23 -4 -49 -13 -57 -20 -8 -8 -60 -35 -115 -61 -55
-26 -116 -60 -136 -76 -20 -15 -42 -28 -48 -28 -6 0 -11 -4 -11 -10 0 -5 -5
-10 -11 -10 -12 0 -89 -33 -119 -51 -8 -5 -22 -12 -30 -15 -8 -3 -22 -10 -30
-15 -8 -5 -22 -12 -30 -15 -8 -3 -23 -10 -32 -15 -10 -5 -31 -9 -47 -9 -16 0
-34 -6 -40 -14 -6 -7 -34 -16 -62 -19 -28 -4 -56 -11 -63 -16 -6 -5 -41 -12
-78 -16 -37 -4 -73 -13 -79 -21 -6 -8 -20 -14 -30 -14 -11 0 -27 -4 -37 -9 -9
-5 -39 -19 -67 -32 -27 -12 -59 -26 -69 -32 -11 -5 -47 -12 -80 -14 -34 -3
-65 -9 -71 -13 -5 -4 -26 -11 -45 -15 -19 -4 -39 -11 -45 -15 -5 -4 -30 -11
-55 -14 -77 -12 -132 -30 -141 -48 -5 -10 -14 -18 -19 -18 -5 0 -32 -13 -58
-30 -27 -16 -63 -30 -80 -30 -17 0 -33 -4 -37 -9 -3 -5 -20 -13 -38 -16 -17
-4 -43 -13 -57 -20 -52 -27 -99 -45 -117 -45 -11 0 -28 -10 -39 -21 -10 -12
-42 -32 -71 -45 -28 -13 -55 -29 -58 -34 -4 -6 -10 -8 -15 -5 -5 3 -18 -3 -30
-15 -11 -11 -29 -20 -40 -20 -11 0 -23 -6 -26 -14 -3 -8 -20 -18 -37 -22 -18
-3 -41 -13 -52 -20 -11 -8 -31 -14 -46 -14 -15 0 -32 -7 -39 -15 -7 -8 -21
-15 -31 -15 -10 0 -20 -4 -23 -9 -4 -5 -24 -12 -46 -16 -22 -4 -42 -11 -45
-15 -3 -5 -26 -12 -52 -16 -25 -4 -58 -13 -72 -20 -14 -8 -36 -14 -49 -14 -12
0 -30 -4 -40 -9 -9 -6 -38 -13 -64 -16 -25 -3 -52 -13 -58 -20 -7 -8 -20 -15
-30 -15 -10 0 -23 -7 -30 -15 -7 -8 -20 -15 -30 -15 -10 0 -23 -7 -30 -15 -7
-8 -25 -15 -41 -15 -19 0 -29 -5 -29 -15 0 -8 -5 -15 -12 -15 -6 0 -41 -26
-77 -58 -36 -32 -74 -61 -84 -65 -9 -3 -17 -11 -17 -16 0 -14 -54 -41 -80 -41
-21 0 -88 -44 -103 -67 -4 -7 -15 -13 -24 -13 -15 0 -88 -31 -123 -51 -8 -5
-22 -12 -30 -15 -8 -3 -29 -12 -47 -20 -17 -8 -38 -14 -47 -14 -9 0 -16 -3
-16 -7 0 -15 -63 -44 -107 -50 -23 -3 -43 -9 -43 -14 0 -12 -60 -39 -87 -39
-12 0 -23 -4 -23 -8 0 -13 -47 -32 -79 -32 -16 0 -34 -7 -41 -15 -7 -8 -24
-15 -39 -15 -15 0 -32 -5 -37 -10 -6 -6 -42 -13 -80 -17 -38 -3 -73 -9 -79
-13 -5 -4 -25 -11 -42 -15 -18 -3 -36 -12 -40 -18 -9 -14 -112 -67 -129 -67
-7 0 -17 -6 -23 -14 -11 -13 -72 -31 -99 -29 -6 0 -12 -4 -12 -11 0 -6 -19
-19 -43 -30 -23 -10 -49 -22 -57 -27 -44 -25 -80 -38 -122 -44 -26 -3 -50 -10
-53 -15 -3 -5 -30 -12 -60 -15 -31 -4 -58 -11 -61 -16 -3 -5 -15 -9 -26 -9
-12 0 -29 -7 -38 -15 -10 -9 -41 -18 -71 -21 -48 -5 -115 -28 -129 -45 -3 -3
-31 -9 -64 -13 -32 -3 -68 -13 -79 -21 -12 -8 -38 -15 -59 -15 -25 0 -38 -5
-38 -13 0 -15 -41 -37 -69 -37 -10 0 -24 -6 -30 -14 -6 -7 -32 -16 -57 -19
-26 -2 -50 -10 -54 -17 -8 -14 -36 -30 -100 -61 -25 -12 -47 -26 -48 -30 -2
-5 -8 -9 -14 -9 -9 0 -62 -22 -118 -50 -8 -4 -16 -17 -18 -29 -2 -11 -9 -21
-16 -21 -15 0 -76 -62 -76 -78 0 -7 -6 -12 -14 -12 -8 0 -25 -12 -38 -27 -33
-39 -103 -93 -121 -93 -8 0 -17 -6 -20 -13 -3 -7 -35 -29 -71 -47 -36 -19 -66
-38 -66 -42 0 -5 -10 -13 -22 -18 -13 -6 -30 -14 -38 -19 -8 -5 -35 -19 -60
-31 -58 -27 -89 -45 -103 -59 -6 -6 -19 -11 -28 -11 -10 0 -45 -18 -78 -40
-33 -22 -64 -40 -69 -40 -5 0 -17 -9 -27 -20 -10 -11 -24 -20 -30 -20 -15 0
-103 -48 -111 -61 -3 -5 -21 -16 -40 -24 -19 -8 -34 -19 -34 -24 0 -6 -6 -11
-13 -11 -7 0 -26 -13 -42 -30 -16 -16 -34 -30 -39 -30 -6 0 -22 -12 -35 -25
-13 -14 -27 -25 -32 -25 -5 0 -9 -7 -9 -15 0 -9 -9 -15 -25 -15 -14 0 -41 -15
-64 -35 -21 -19 -48 -35 -60 -35 -24 0 -64 -23 -99 -56 -12 -12 -38 -25 -56
-28 -19 -4 -39 -13 -46 -21 -7 -8 -23 -15 -36 -15 -12 0 -29 -6 -36 -12 -20
-19 -50 -38 -70 -44 -10 -4 -18 -10 -18 -14 0 -5 -13 -11 -29 -15 -16 -3 -45
-24 -64 -46 -20 -21 -39 -39 -43 -39 -4 0 -39 -15 -78 -34 -39 -19 -78 -37
-86 -41 -27 -11 -55 -30 -101 -67 -26 -21 -51 -38 -58 -38 -6 0 -11 -4 -11 -9
0 -5 -20 -19 -45 -31 -25 -12 -50 -31 -56 -41 -5 -11 -20 -19 -35 -19 -13 0
-27 -7 -30 -15 -4 -8 -18 -15 -33 -15 -19 0 -40 -14 -71 -45 -24 -25 -52 -45
-61 -45 -10 0 -21 -4 -24 -10 -3 -5 -14 -10 -24 -10 -10 0 -26 -9 -36 -20 -10
-11 -23 -20 -28 -20 -6 0 -24 -11 -41 -24 -17 -13 -46 -27 -64 -31 -18 -4 -36
-13 -39 -21 -3 -8 -11 -14 -18 -14 -7 0 -15 -6 -18 -13 -2 -7 -29 -25 -60 -40
-30 -16 -63 -36 -74 -45 -27 -24 -60 -42 -78 -42 -8 0 -15 -7 -15 -15 0 -9
-10 -19 -22 -24 -13 -5 -32 -18 -42 -30 -11 -11 -25 -21 -33 -21 -7 0 -21 -9
-30 -20 -10 -11 -25 -20 -35 -20 -10 0 -18 -7 -18 -15 0 -8 -7 -15 -15 -15
-17 0 -118 -95 -134 -127 -7 -13 -17 -23 -22 -23 -6 0 -28 -13 -49 -30 -21
-16 -42 -30 -48 -30 -5 0 -15 -7 -22 -15 -7 -8 -20 -15 -29 -15 -19 0 -64 -45
-74 -72 -4 -10 -12 -18 -19 -18 -8 0 -28 -13 -46 -30 -18 -16 -35 -30 -38 -30
-8 0 -44 -35 -44 -43 0 -5 -13 -25 -30 -44 -16 -18 -30 -40 -30 -47 0 -8 -16
-28 -35 -45 -27 -23 -35 -38 -35 -64 0 -37 -21 -63 -42 -51 -10 5 -10 4 -1 -6
12 -13 11 -17 -21 -77 -9 -17 -16 -52 -16 -76 0 -25 -5 -49 -10 -52 -6 -4 -8
-10 -5 -15 3 -5 -4 -14 -16 -20 -18 -10 -20 -19 -18 -68 2 -39 -2 -67 -14 -89
-10 -18 -17 -34 -16 -35 0 -2 -4 -16 -10 -31 -6 -16 -11 -34 -11 -42 0 -8 -4
-16 -9 -19 -4 -3 -11 -42 -15 -88 -4 -45 -13 -89 -20 -98 -7 -8 -14 -37 -15
-64 -1 -27 -6 -57 -12 -67 -5 -10 -9 -33 -9 -53 0 -19 -5 -38 -10 -41 -6 -4
-10 -14 -8 -23 1 -10 -5 -32 -14 -49 -9 -19 -12 -35 -7 -39 15 -9 10 -34 -6
-34 -9 0 -15 -9 -15 -23 0 -12 -9 -30 -20 -40 -13 -11 -20 -29 -20 -52 0 -19
-4 -35 -9 -35 -4 0 -11 -35 -15 -78 -7 -78 -19 -125 -45 -171 -17 -31 -10
-187 10 -219 11 -18 11 -26 2 -42 -8 -12 -9 -21 -3 -25 6 -3 10 -19 10 -34 0
-15 4 -31 10 -37 5 -5 11 -32 12 -58 1 -38 5 -50 20 -54 14 -3 18 -15 20 -61
2 -83 2 -84 16 -89 6 -2 12 -17 12 -33 0 -19 5 -29 15 -29 8 0 15 -6 15 -14 0
-8 7 -16 15 -20 8 -3 15 -14 15 -24 0 -26 28 -82 58 -114 19 -21 23 -34 19
-57 -5 -21 0 -37 15 -56 20 -26 44 -102 55 -175 3 -19 10 -40 15 -47 5 -7 7
-17 3 -23 -4 -6 -1 -19 7 -28 21 -25 58 -91 58 -104 0 -6 10 -25 23 -42 13
-17 27 -39 30 -49 4 -11 16 -21 27 -24 22 -6 26 -18 10 -28 -8 -5 -7 -12 2
-22 16 -20 14 -168 -3 -200 -10 -18 -10 -28 0 -47 11 -19 10 -27 0 -44 -11
-17 -11 -24 -1 -34 6 -6 12 -25 12 -40 0 -35 24 -83 45 -91 8 -4 15 -13 15
-22 0 -8 7 -15 15 -15 8 0 15 -6 15 -14 0 -8 7 -16 15 -20 11 -4 15 -21 15
-60 0 -30 5 -58 10 -61 6 -4 10 -24 8 -45 -1 -22 5 -48 15 -63 8 -13 13 -34
10 -46 -8 -30 43 -132 62 -124 10 3 15 -2 15 -16 0 -20 181 -213 208 -222 7
-2 14 -13 16 -24 2 -12 10 -19 20 -17 9 2 16 -3 16 -11 0 -7 18 -31 40 -52 22
-21 40 -44 40 -50 0 -6 16 -26 35 -45 25 -25 35 -43 35 -65 0 -19 8 -39 20
-50 11 -10 20 -28 20 -40 0 -11 7 -30 15 -41 8 -10 15 -29 15 -42 0 -29 32
-92 59 -116 12 -11 21 -25 21 -33 0 -8 20 -43 45 -79 25 -35 45 -67 45 -70 0
-4 16 -26 35 -50 19 -23 35 -45 35 -49 0 -12 126 -135 138 -135 7 0 12 -9 12
-20 0 -12 25 -44 60 -77 33 -31 60 -62 60 -69 0 -8 7 -14 15 -14 8 0 20 -10
26 -23 19 -37 160 -187 175 -187 8 0 31 -16 53 -35 21 -19 43 -35 49 -35 6 0
15 -6 19 -13 4 -6 22 -19 38 -27 17 -8 34 -21 38 -27 4 -7 13 -13 20 -13 7 0
59 -45 117 -100 58 -55 109 -100 113 -100 5 0 7 -8 5 -18 -3 -22 18 -52 37
-52 16 0 75 -105 75 -132 0 -10 6 -18 14 -18 13 0 38 -26 96 -101 51 -65 93
-109 105 -109 7 0 21 -12 30 -27 10 -15 44 -53 76 -85 41 -40 60 -68 65 -93 3
-20 12 -35 20 -35 8 0 14 -8 14 -19 0 -10 7 -24 15 -31 8 -7 15 -20 15 -30 0
-10 7 -23 15 -30 8 -7 15 -18 15 -24 0 -7 23 -36 52 -66 29 -30 53 -57 53 -60
6 -22 24 -48 58 -86 22 -24 45 -54 51 -67 6 -12 21 -26 34 -32 12 -5 22 -14
22 -19 0 -5 18 -31 40 -57 22 -26 40 -54 40 -61 0 -8 20 -34 45 -58 25 -24 45
-48 45 -53 0 -11 52 -67 63 -67 4 0 35 -27 70 -60 34 -33 81 -69 104 -79 23
-11 44 -25 48 -31 3 -5 18 -10 32 -10 32 0 83 -36 83 -60 0 -10 10 -20 23 -24
13 -3 41 -23 63 -45 21 -22 59 -61 84 -86 25 -25 48 -45 53 -45 4 0 30 -18 58
-40 28 -22 54 -38 57 -36 4 2 21 -5 37 -15 17 -10 41 -24 55 -30 14 -6 61 -29
105 -50 129 -61 238 -77 527 -78 148 -1 197 -4 201 -13 3 -10 50 -13 196 -12
162 1 194 4 209 18 10 9 30 16 45 16 14 0 28 4 31 9 3 4 33 11 65 15 33 4 63
11 66 16 10 16 63 38 107 45 24 3 52 10 63 14 45 19 72 32 110 56 22 13 47 24
54 25 8 0 27 12 42 26 28 27 37 33 107 71 22 12 66 47 98 78 33 30 66 55 75
55 9 0 22 7 29 15 7 8 27 15 44 15 17 0 62 16 99 35 38 19 77 35 88 35 10 0
27 4 37 9 64 31 91 42 122 47 35 6 72 19 100 35 8 5 22 12 30 15 8 3 22 10 30
15 8 5 22 12 30 15 8 3 22 10 30 15 8 5 22 12 30 15 8 3 33 14 56 25 23 10 46
19 53 19 6 0 19 4 29 9 50 26 111 51 121 51 6 0 19 4 29 9 36 18 77 35 89 36
6 0 15 4 19 8 4 4 15 7 24 7 10 0 23 7 30 15 7 8 20 15 29 15 9 0 30 7 46 16
17 9 53 28 80 43 28 14 79 45 114 69 34 23 68 41 75 40 11 -2 75 24 106 43 8
5 26 14 40 20 14 6 32 15 40 20 8 5 22 12 30 15 8 3 23 10 32 15 10 5 23 9 30
9 7 0 24 6 38 13 14 8 41 17 60 20 18 4 49 20 69 35 47 35 72 49 113 57 18 4
44 16 57 26 13 10 46 30 75 45 60 30 89 46 174 97 35 20 68 37 74 37 10 0 71
26 120 51 10 5 23 9 29 9 12 0 74 26 99 41 8 5 34 18 57 30 22 11 49 29 59 40
9 10 22 19 27 19 6 0 25 11 43 25 18 14 38 25 44 25 13 0 66 21 113 46 16 8
34 14 42 14 7 0 18 7 25 15 7 8 19 15 27 15 8 0 29 6 46 14 18 8 53 17 79 21
26 3 50 10 53 14 2 5 24 12 47 16 24 4 70 22 103 40 128 71 197 104 235 110
22 4 42 11 45 15 3 5 27 12 53 15 26 4 56 10 67 15 11 5 41 11 67 15 26 3 50
10 53 16 4 5 19 9 34 9 16 0 40 9 54 20 14 11 30 20 36 20 10 0 66 22 103 41
10 5 24 9 32 9 7 0 19 7 26 15 7 8 19 15 28 15 8 0 34 16 58 35 23 19 47 35
52 35 6 0 45 18 88 40 43 22 83 40 89 40 6 0 27 9 48 20 28 15 56 20 121 20
47 0 88 5 91 10 3 6 17 10 29 10 13 0 29 7 36 15 7 8 20 15 29 15 20 1 155 67
198 98 17 12 38 22 46 22 8 0 20 6 26 14 7 8 27 17 47 20 35 7 186 78 214 101
8 7 31 16 50 20 19 4 41 11 50 15 8 4 33 15 55 25 22 9 47 21 55 26 8 5 22 12
30 16 8 3 31 19 51 35 20 15 44 28 52 28 8 0 17 6 20 14 3 7 26 17 51 20 25 4
48 11 51 15 2 5 22 12 42 16 21 4 43 10 48 15 6 4 31 11 57 14 26 4 50 11 53
15 2 5 21 12 41 16 34 6 54 14 94 37 8 4 22 11 30 14 8 3 33 14 56 25 23 10
45 19 50 19 4 0 47 18 94 41 130 62 142 67 187 74 24 4 45 10 48 15 3 4 35 11
72 15 38 4 73 10 78 15 6 4 26 10 46 14 31 5 78 26 129 55 30 17 66 30 105 36
22 4 45 10 50 15 6 4 27 11 49 14 21 4 46 11 55 16 9 5 37 12 63 15 26 3 50
10 53 16 4 5 14 9 23 9 9 0 30 7 46 15 16 8 34 14 40 13 11 -2 29 5 197 86 53
25 106 46 117 46 11 0 23 4 26 9 3 5 35 12 71 16 36 3 67 11 70 16 4 5 23 9
43 9 21 0 54 9 75 20 20 11 46 20 58 20 12 0 38 13 58 28 20 15 50 34 66 41
17 7 44 19 60 26 17 7 68 16 114 19 46 3 89 10 95 15 6 5 40 12 76 16 36 4 70
11 76 16 6 5 40 12 75 15 35 4 73 13 84 20 11 8 34 14 52 14 17 0 35 5 38 10
3 6 21 10 38 10 18 0 45 7 61 15 15 8 33 15 38 15 5 0 28 15 51 33 23 18 58
40 77 49 80 36 112 48 130 48 10 0 21 4 24 9 3 5 50 12 103 16 54 4 103 11
108 15 6 4 37 11 70 15 44 5 70 15 96 36 20 16 44 29 52 29 9 0 19 5 22 11 4
5 18 14 31 19 13 5 29 21 34 35 7 18 17 25 37 25 16 0 37 7 47 15 11 8 34 15
52 15 18 0 35 4 38 9 4 5 49 12 101 16 52 4 98 11 101 16 3 5 22 9 42 9 20 0
50 7 65 15 15 8 44 17 64 21 20 4 48 13 62 20 14 8 33 14 42 14 8 0 26 11 38
24 13 13 39 27 59 31 21 4 43 12 50 17 18 15 134 16 139 2 2 -6 -6 -14 -18
-17 -21 -6 -21 -10 -16 -79 4 -56 2 -77 -10 -89 -8 -10 -17 -43 -20 -74 -5
-47 -3 -59 10 -67 24 -13 21 -26 -13 -58 -27 -25 -30 -34 -30 -88 0 -47 -6
-72 -27 -109 -21 -39 -26 -60 -26 -113 1 -39 -4 -71 -11 -80 -40 -47 -63 -168
-36 -185 14 -9 13 -78 -2 -93 -8 -8 -8 -15 2 -27 10 -12 8 -21 -14 -49 -14
-19 -26 -39 -26 -45 0 -6 -6 -11 -14 -11 -9 0 -15 -18 -19 -51 -4 -28 -12 -58
-18 -66 -7 -8 -14 -50 -17 -94 -3 -44 -9 -82 -14 -85 -5 -3 -4 -11 2 -19 15
-18 17 -129 3 -146 -6 -8 -14 -33 -18 -56 -4 -24 -11 -45 -16 -49 -5 -3 -9
-13 -9 -22 0 -9 -7 -30 -15 -45 -8 -15 -12 -34 -9 -41 3 -8 1 -17 -5 -21 -6
-3 -11 -26 -11 -50 0 -24 -4 -47 -10 -50 -6 -4 -10 -58 -10 -129 0 -92 -4
-127 -15 -142 -8 -10 -15 -26 -15 -35 0 -9 -7 -22 -15 -29 -12 -10 -13 -16 -4
-27 9 -10 9 -19 -1 -38 -7 -14 -10 -39 -7 -58 4 -29 1 -39 -20 -58 -22 -21
-24 -30 -20 -76 4 -38 2 -55 -9 -64 -10 -8 -14 -33 -14 -79 0 -49 -4 -71 -15
-80 -11 -9 -13 -16 -5 -24 14 -14 13 -82 -2 -106 -11 -17 -10 -22 2 -30 12 -8
12 -11 -3 -28 -9 -10 -17 -28 -17 -39 0 -11 -11 -40 -23 -64 -13 -25 -27 -73
-31 -109 -4 -36 -12 -70 -17 -76 -5 -6 -10 -72 -12 -146 -1 -81 -6 -141 -13
-149 -6 -8 -14 -61 -18 -119 -6 -95 -12 -120 -47 -192 -12 -24 -11 -55 1 -63
17 -10 12 -75 -5 -75 -12 0 -15 -14 -15 -68 0 -64 -16 -115 -48 -155 -14 -17
-3 -77 14 -77 18 0 18 -14 -1 -30 -8 -7 -15 -27 -15 -45 0 -18 -7 -38 -15 -45
-18 -15 -20 -51 -3 -68 10 -10 10 -17 0 -32 -6 -11 -12 -32 -12 -47 0 -16 -7
-41 -15 -57 -17 -32 -19 -58 -6 -71 18 -20 21 -80 6 -109 -11 -20 -12 -33 -5
-40 15 -15 12 -83 -4 -89 -8 -3 -13 -21 -13 -47 0 -23 -5 -46 -12 -53 -17 -17
-14 -124 4 -131 8 -3 15 -12 15 -20 0 -7 -7 -16 -15 -20 -11 -4 -15 -22 -15
-69 0 -40 -5 -70 -15 -83 -17 -23 -20 -75 -4 -91 14 -14 -9 -73 -28 -73 -19 0
-17 -66 2 -74 21 -8 19 -33 -5 -63 -17 -22 -19 -39 -18 -139 1 -73 -2 -118
-10 -126 -8 -8 -7 -17 5 -34 14 -22 14 -26 -1 -49 -12 -18 -16 -49 -16 -117 0
-60 -5 -102 -14 -120 -9 -17 -17 -80 -21 -173 -4 -80 -12 -148 -16 -151 -14
-8 -11 -64 3 -64 9 0 9 -3 0 -12 -15 -15 -16 -50 -2 -64 6 -6 13 -76 16 -155
3 -79 10 -149 15 -155 12 -15 -17 -71 -41 -79 -21 -7 -25 -19 -34 -97 -4 -35
-2 -47 9 -52 18 -7 21 -116 4 -133 -8 -8 -8 -17 1 -33 8 -14 8 -25 1 -33 -5
-7 -13 -37 -17 -67 -4 -30 -10 -59 -14 -65 -4 -5 -11 -39 -15 -75 -4 -36 -12
-71 -18 -78 -7 -9 -12 -95 -13 -238 -1 -129 -6 -230 -12 -237 -5 -6 -12 -73
-14 -147 -3 -92 -9 -142 -19 -157 -11 -19 -11 -27 -1 -43 17 -28 15 -141 -3
-176 -8 -16 -15 -52 -15 -80 0 -34 -5 -56 -15 -64 -12 -10 -15 -36 -15 -115 0
-57 -4 -105 -9 -107 -6 -1 -13 -66 -17 -143 -4 -77 -10 -145 -15 -151 -5 -5
-11 -91 -15 -190 -4 -98 -10 -183 -14 -189 -4 -5 -10 -86 -13 -179 -4 -92 -10
-173 -15 -180 -6 -6 -13 -27 -17 -46 -4 -19 -12 -41 -18 -48 -6 -7 -12 -103
-15 -228 -3 -118 -9 -217 -13 -220 -5 -3 -9 -20 -9 -37 0 -18 -6 -41 -14 -52
-8 -12 -16 -65 -21 -137 -4 -65 -11 -118 -16 -118 -13 0 -11 -54 3 -68 9 -9 8
-18 -3 -39 -10 -19 -13 -57 -12 -135 1 -59 -1 -108 -6 -108 -15 0 -31 -52 -31
-104 0 -30 -7 -67 -15 -82 -10 -19 -15 -58 -15 -110 0 -44 -3 -84 -7 -88 -5
-4 -13 -62 -20 -129 -12 -128 -29 -229 -43 -262 -5 -11 -11 -65 -14 -119 -3
-55 -10 -104 -16 -110 -5 -5 -10 -40 -10 -77 0 -37 -5 -69 -10 -71 -11 -3 -34
-146 -51 -308 -5 -52 -13 -102 -18 -110 -5 -9 -12 -45 -16 -80 -4 -36 -11 -69
-15 -75 -4 -5 -10 -41 -13 -79 -4 -37 -11 -73 -16 -80 -5 -6 -13 -45 -16 -86
-4 -41 -11 -79 -15 -85 -5 -5 -11 -28 -15 -50 -4 -22 -11 -44 -15 -50 -4 -5
-10 -53 -14 -105 -4 -52 -12 -100 -18 -107 -6 -7 -14 -53 -19 -101 -13 -140
-29 -244 -38 -256 -4 -6 -11 -60 -14 -119 -3 -60 -10 -114 -15 -120 -5 -7 -12
-61 -16 -121 -3 -60 -11 -115 -18 -123 -7 -8 -14 -55 -16 -104 -3 -49 -8 -89
-12 -89 -4 0 -11 -48 -14 -107 -4 -60 -12 -113 -16 -118 -5 -6 -12 -60 -16
-120 -4 -61 -11 -115 -16 -122 -5 -6 -12 -44 -15 -85 -3 -40 -9 -77 -13 -83
-4 -5 -11 -36 -14 -67 -4 -32 -12 -60 -17 -64 -6 -4 -6 -11 2 -20 8 -10 9 -18
0 -27 -6 -8 -14 -56 -17 -108 -3 -51 -9 -98 -13 -104 -5 -5 -11 -54 -14 -109
-4 -54 -11 -104 -16 -110 -5 -6 -12 -60 -16 -121 -4 -60 -11 -114 -15 -120 -4
-5 -10 -45 -12 -87 -3 -43 -10 -83 -16 -91 -7 -8 -14 -73 -18 -153 -3 -76 -9
-143 -14 -149 -4 -5 -10 -49 -12 -97 -2 -47 -10 -93 -17 -101 -8 -10 -14 -69
-17 -169 -3 -84 -10 -157 -15 -162 -5 -6 -9 -60 -9 -120 0 -74 -5 -120 -14
-137 -9 -17 -15 -89 -20 -215 -4 -104 -11 -193 -16 -199 -4 -5 -10 -57 -14
-115 -4 -57 -11 -109 -15 -115 -22 -27 -43 -177 -47 -337 -3 -95 -9 -177 -14
-183 -6 -7 -13 -54 -16 -106 -4 -52 -10 -98 -14 -104 -4 -5 -11 -57 -15 -115
-4 -58 -11 -110 -15 -115 -5 -6 -12 -83 -16 -170 -4 -88 -10 -164 -14 -170 -4
-5 -10 -77 -14 -160 -4 -82 -11 -152 -16 -155 -5 -3 -11 -61 -15 -130 -10
-184 -11 -206 -17 -216 -3 -5 -9 -137 -13 -294 -4 -157 -11 -289 -15 -295 -4
-5 -11 -73 -14 -150 -4 -77 -12 -145 -17 -151 -5 -7 -11 -42 -12 -78 -2 -36
-8 -71 -15 -78 -15 -15 -16 -54 -2 -63 13 -8 13 -48 0 -61 -6 -6 -12 -86 -15
-190 -2 -113 -8 -180 -14 -182 -7 -2 -11 -39 -11 -91 0 -49 -5 -92 -11 -98 -8
-8 -8 -13 0 -17 12 -8 15 -108 5 -119 -4 -4 -6 -42 -5 -86 1 -47 -2 -82 -8
-86 -15 -8 -14 -68 0 -82 9 -9 8 -20 -4 -45 -10 -23 -16 -65 -16 -138 -1 -57
-6 -109 -11 -114 -13 -13 -13 -53 0 -61 13 -8 13 -48 0 -61 -5 -5 -11 -72 -13
-147 -2 -107 -6 -141 -17 -148 -12 -8 -12 -12 -2 -16 17 -7 15 -38 -3 -53 -10
-8 -15 -31 -15 -66 0 -29 -4 -56 -10 -59 -14 -8 -13 -41 2 -65 10 -15 10 -25
2 -38 -7 -10 -15 -64 -19 -120 -4 -56 -11 -105 -16 -108 -5 -3 -9 -25 -9 -48
0 -25 -6 -48 -14 -55 -9 -8 -14 -33 -14 -69 -1 -31 -5 -78 -10 -104 -5 -27 -6
-82 -2 -125 10 -94 2 -324 -11 -337 -14 -15 -11 -80 6 -112 8 -17 15 -56 15
-91 0 -34 5 -65 10 -68 6 -3 10 -19 10 -35 0 -15 4 -30 8 -32 16 -7 52 -81 52
-108 0 -17 8 -34 20 -43 11 -7 26 -29 33 -48 8 -19 18 -43 22 -54 5 -11 9 -24
10 -30 2 -20 46 -95 55 -95 13 0 13 27 0 35 -5 3 -10 11 -10 16 0 22 22 -5 42
-52 12 -27 28 -49 35 -49 7 0 13 -7 13 -15 0 -8 7 -15 15 -15 8 0 15 -4 15
-10 0 -14 33 -50 46 -50 6 0 17 -7 24 -15 12 -14 15 -14 30 0 15 14 18 14 30
0 10 -12 10 -18 0 -30 -18 -21 4 -45 42 -45 29 0 67 -31 68 -56 0 -20 29 -37
43 -27 24 19 46 23 40 7 -3 -8 1 -14 9 -14 8 0 23 -6 33 -14 19 -14 19 -15 2
-33 -22 -25 -24 -51 -2 -33 16 13 45 7 45 -10 0 -5 -7 -10 -15 -10 -8 0 -15
-6 -15 -13 0 -18 21 -37 41 -37 12 0 18 -12 22 -47 3 -31 12 -53 26 -64 13
-11 19 -23 15 -34 -5 -13 -2 -15 20 -9 22 5 28 3 33 -15 3 -11 12 -21 19 -21
8 0 14 -10 14 -24 0 -14 7 -26 17 -30 10 -3 32 -15 50 -25 19 -12 35 -16 38
-11 11 17 40 11 53 -11 10 -16 10 -24 1 -35 -9 -11 -8 -18 2 -30 14 -17 33
-47 45 -74 4 -8 14 -20 22 -26 17 -12 8 -34 -14 -34 -19 0 -18 -26 1 -34 8 -3
15 -15 15 -26 0 -11 7 -20 15 -20 8 0 15 -7 15 -15 0 -8 9 -24 20 -35 11 -11
20 -29 20 -39 0 -11 5 -23 10 -26 6 -3 10 -20 10 -36 0 -22 6 -32 24 -39 13
-5 27 -18 30 -28 4 -11 12 -19 19 -19 52 2 75 -5 80 -22 5 -20 64 -35 83 -20
6 5 18 3 30 -6 25 -19 44 -19 44 0 0 12 14 15 68 15 62 0 70 -2 92 -28 23 -26
98 -63 85 -42 -4 6 5 10 20 10 14 0 28 -7 32 -16 4 -11 13 -14 29 -10 21 6 24
3 24 -24 0 -23 5 -31 25 -36 14 -3 25 -13 25 -21 0 -21 29 -73 41 -73 6 0 19
10 29 23 19 21 19 21 14 1 -4 -14 3 -30 20 -48 13 -15 26 -37 28 -49 2 -14 10
-21 22 -20 16 1 18 -4 12 -43 -5 -39 -3 -44 14 -44 11 0 20 -7 20 -15 0 -8 -7
-15 -15 -15 -8 0 -15 -7 -15 -16 0 -12 6 -15 25 -10 19 5 27 2 32 -11 4 -10
14 -23 22 -29 13 -10 13 -15 -2 -37 -9 -15 -17 -32 -17 -40 0 -19 83 -97 104
-97 12 0 16 -5 12 -17 -6 -21 1 -34 29 -49 11 -6 21 -23 23 -37 2 -15 12 -33
22 -40 11 -8 20 -28 22 -52 2 -32 7 -40 28 -45 14 -3 26 -14 28 -25 2 -11 11
-25 19 -32 9 -7 13 -19 10 -27 -3 -8 1 -17 11 -21 14 -5 13 -8 -8 -18 -13 -7
-25 -18 -28 -24 -4 -15 24 -17 33 -3 9 15 25 12 25 -5 0 -8 14 -22 32 -31 17
-9 40 -25 51 -35 12 -10 24 -19 29 -19 4 0 8 -7 8 -15 0 -8 7 -15 15 -15 10 0
15 -10 15 -30 0 -23 5 -30 19 -30 11 0 23 4 26 10 3 6 10 10 14 10 15 0 81
-66 81 -82 0 -20 24 -40 47 -38 35 4 44 0 53 -25 5 -14 17 -25 25 -25 9 0 26
-6 38 -14 32 -20 94 -29 99 -14 6 18 40 1 36 -19 -3 -13 -12 -17 -31 -15 -38
4 -34 -16 6 -26 20 -5 32 -15 31 -24 -1 -13 4 -14 30 -6 17 5 39 12 49 15 21
7 22 -10 2 -27 -8 -7 -15 -24 -15 -37 0 -22 3 -25 30 -21 29 4 31 3 25 -24 -5
-21 -3 -28 9 -28 9 0 16 -6 16 -14 0 -7 9 -16 20 -19 11 -3 20 -13 20 -22 0
-11 5 -15 14 -12 20 8 46 -24 46 -56 0 -34 12 -34 54 -2 18 14 40 25 49 25 10
0 17 5 17 11 0 20 24 3 30 -22 7 -29 32 -31 79 -6 40 21 61 10 61 -34 0 -28 2
-29 49 -29 49 0 65 -10 66 -40 0 -12 14 -15 63 -16 54 0 66 -4 92 -29 25 -24
30 -26 36 -12 8 21 24 22 24 3 0 -26 20 -28 38 -5 16 18 22 20 40 10 12 -6 22
-16 22 -21 0 -6 18 -10 40 -10 29 0 40 -4 40 -15 0 -11 11 -15 39 -15 21 0 58
-11 82 -23 24 -13 68 -27 98 -30 29 -3 58 -13 65 -21 6 -8 20 -16 31 -18 11
-2 22 -14 25 -28 4 -17 14 -26 30 -28 13 -2 30 -11 36 -20 11 -15 14 -15 32 2
27 24 42 13 42 -29 0 -51 26 -57 43 -10 9 21 19 -5 19 -49 1 -37 5 -46 18 -46
10 0 23 -7 30 -15 11 -13 8 -15 -17 -15 -39 0 -47 -9 -27 -31 15 -17 17 -17
50 2 43 23 44 23 44 0 0 -10 -7 -21 -15 -25 -25 -9 -18 -36 9 -36 19 0 26 -7
31 -32 9 -41 22 -58 46 -58 11 0 19 -7 19 -15 0 -15 10 -19 43 -15 16 1 18 -3
12 -29 -4 -21 -3 -31 5 -31 6 0 18 -7 27 -16 10 -10 25 -13 44 -9 21 5 30 2
39 -14 7 -13 21 -21 38 -21 17 0 43 -15 72 -41 32 -29 50 -39 66 -35 14 4 30
-3 48 -19 31 -29 48 -31 66 -10 12 14 15 14 30 0 9 -8 19 -12 23 -9 3 3 19 -3
35 -15 17 -12 42 -21 56 -21 19 0 26 -5 26 -20 0 -11 7 -20 15 -20 9 0 15 -7
13 -16 -3 -16 10 -27 45 -38 9 -3 17 -14 17 -25 0 -21 45 -55 60 -46 5 3 19 1
30 -5 17 -9 19 -14 10 -25 -17 -21 -3 -37 20 -25 36 19 47 15 127 -50 22 -18
63 -30 102 -30 20 0 42 -5 48 -11 8 -8 14 -5 23 10 13 25 30 19 30 -10 0 -23
23 -25 40 -4 12 14 16 13 42 -11 15 -15 28 -36 28 -46 0 -14 8 -18 33 -18 34
0 67 -24 67 -49 0 -7 10 -26 21 -43 15 -21 27 -28 41 -25 24 7 54 -22 50 -46
-4 -21 16 -23 24 -2 9 22 31 18 37 -5 7 -26 27 -26 34 0 6 23 23 27 23 6 0
-22 46 -46 87 -46 31 0 42 -6 58 -30 14 -21 28 -30 48 -30 17 0 26 -4 22 -10
-4 -6 -10 -8 -14 -5 -5 2 -17 -2 -27 -10 -18 -14 -18 -14 9 -15 15 0 35 -4 45
-9 35 -19 90 -41 102 -41 8 0 10 -11 5 -33 l-6 -32 21 28 c28 35 85 40 75 6
-5 -15 -2 -22 14 -26 12 -3 21 -12 21 -20 0 -8 3 -13 8 -11 4 2 19 10 34 17
25 13 30 11 59 -13 22 -19 35 -24 42 -17 11 11 57 15 57 6 0 -3 -7 -17 -16
-30 l-16 -25 50 1 c44 1 51 5 54 23 2 15 11 22 31 24 23 3 27 0 27 -22 0 -16
6 -26 15 -26 10 0 15 10 15 29 0 29 0 29 68 33 54 3 71 0 88 -14 23 -20 44
-24 44 -7 0 6 27 10 73 9 93 -2 107 2 34 9 -98 10 -70 25 52 28 64 2 119 7
127 14 7 6 17 8 22 5 25 -16 82 40 82 81 0 8 10 18 23 23 12 6 29 14 37 19 8
5 23 12 32 15 10 3 24 20 31 38 8 18 26 44 41 57 14 14 26 33 26 43 0 10 8 21
18 25 9 3 24 12 32 19 8 7 20 13 25 13 6 0 11 10 13 22 3 18 0 20 -20 13 -20
-6 -21 -5 -9 10 7 9 19 15 25 14 7 -2 29 14 50 34 22 21 34 38 27 38 -7 0 -11
10 -9 23 2 13 10 22 20 22 18 0 58 65 58 95 0 13 2 13 9 1 8 -12 13 -11 30 10
11 13 20 28 21 33 0 5 7 18 17 28 11 13 18 43 21 98 4 66 7 80 21 80 22 0 41
19 41 42 0 10 7 18 15 18 9 0 15 9 15 25 0 13 8 29 18 34 15 9 15 10 1 11 -9
0 -23 -10 -32 -22 -8 -13 -19 -19 -23 -15 -5 4 -3 16 4 25 7 9 19 32 27 50 9
19 23 32 34 32 26 0 49 29 32 40 -11 6 -9 11 8 19 14 8 21 21 21 42 0 31 34
85 77 125 28 25 29 40 6 53 -16 9 -15 13 15 44 21 22 30 37 23 41 -17 11 -13
24 9 31 13 4 20 15 20 30 0 13 6 28 14 32 24 14 67 106 61 131 -7 28 12 65 30
58 20 -7 23 1 15 43 -6 33 -4 40 11 44 15 4 19 15 19 49 0 36 6 50 30 73 32
30 38 51 18 57 -8 3 -5 12 9 27 26 28 40 96 23 116 -9 10 -8 20 5 39 10 14 21
26 26 26 5 0 9 5 9 10 0 6 -7 10 -15 10 -25 0 -17 18 15 35 34 18 38 32 13 51
-17 13 -17 13 -1 14 15 0 17 7 11 45 -5 38 -3 45 11 45 17 0 18 2 20 68 1 24
8 47 16 52 8 5 15 30 17 62 2 29 9 58 15 63 7 6 14 26 15 45 2 19 9 40 18 46
8 6 15 21 15 33 0 12 6 21 15 21 18 0 20 17 3 23 -10 3 -10 9 1 29 7 14 10 35
7 45 -4 12 0 25 9 33 8 7 15 21 15 31 0 11 6 19 14 19 13 0 26 48 26 103 0 15
7 30 15 33 9 4 15 19 15 39 0 17 7 47 16 65 13 25 14 37 6 50 -9 14 -7 17 6
16 12 -1 18 8 20 26 2 20 -1 28 -12 28 -22 0 -20 16 4 40 15 15 20 33 20 71 0
28 5 59 10 69 6 10 13 61 17 112 3 51 11 96 16 99 5 4 12 38 14 75 2 38 8 78
12 89 5 11 17 39 26 62 15 35 15 45 5 58 -9 11 -9 19 -2 28 6 7 14 32 18 56 4
23 13 45 20 48 10 4 14 26 14 79 0 41 4 74 9 74 4 0 8 44 8 97 -1 88 1 98 19
103 18 5 19 17 22 160 2 86 8 160 13 167 17 20 17 126 0 139 -12 10 -12 14 2
35 10 13 17 35 17 49 0 14 4 30 9 36 13 14 22 112 10 116 -7 2 -2 20 11 41 16
27 24 60 27 110 2 40 8 81 13 92 5 11 11 53 13 93 2 40 10 79 16 85 14 14 15
57 1 57 -5 0 -10 -8 -11 -17 0 -11 -3 -13 -6 -6 -2 7 3 27 11 44 9 18 16 47
16 64 0 20 6 35 15 39 11 4 15 21 15 61 0 50 -12 73 -23 43 -2 -7 -2 -2 0 12
3 14 11 32 19 41 10 11 14 42 14 105 0 58 4 94 12 102 9 9 13 70 15 214 2 110
7 206 12 212 4 6 11 84 14 174 3 89 10 168 15 175 12 14 18 224 8 249 -4 9 -3
25 3 37 6 11 11 44 11 73 0 30 5 59 12 66 6 6 12 34 12 62 0 42 3 50 18 50 22
0 23 8 4 29 -22 24 -23 86 -3 109 22 24 23 97 2 106 -17 6 -22 91 -6 100 5 4
12 24 16 45 4 22 13 45 21 52 10 8 14 38 14 115 0 58 4 106 10 109 6 3 10 36
10 73 0 47 5 75 17 92 12 17 13 25 5 28 -15 5 -17 148 -2 157 12 8 13 58 1 71
-5 5 -11 23 -13 39 -3 17 -3 24 -1 18 3 -7 9 -13 14 -13 12 0 12 127 -1 135
-16 10 -12 55 5 55 20 0 20 46 0 84 -18 33 -19 58 -5 72 7 7 13 117 17 283 6
244 5 273 -10 284 -14 10 -17 43 -18 255 -1 172 2 247 11 257 9 11 7 20 -6 40
-15 22 -16 42 -10 135 5 95 4 110 -9 110 -11 0 -15 12 -15 48 0 26 5 53 11 59
6 6 13 47 16 92 5 75 4 81 -13 81 -19 1 -19 1 0 15 17 13 18 25 14 145 -5 114
0 157 15 118 2 -7 4 -2 4 12 -1 120 18 368 29 385 8 11 14 45 14 75 0 31 5 61
12 68 9 9 9 15 0 24 -15 15 -15 51 0 66 7 7 12 51 12 115 1 76 5 109 16 122
10 13 15 45 16 111 1 52 6 99 12 106 5 7 13 42 17 76 4 35 13 76 21 90 12 23
11 28 -1 35 -19 10 -19 51 0 67 9 7 15 29 15 51 0 21 5 41 10 44 6 3 10 17 10
30 0 13 -4 27 -10 30 -14 9 -13 98 2 113 8 8 8 15 -1 26 -8 9 -8 15 -1 18 12
4 31 108 24 135 -3 10 2 32 10 48 9 17 16 44 16 61 0 16 5 35 11 41 5 5 12 52
14 103 2 51 8 97 14 103 6 6 11 55 12 116 0 59 4 133 9 166 4 33 4 64 0 68
-10 11 0 149 11 161 12 13 11 53 -1 61 -13 8 -13 108 0 121 7 7 13 86 15 192
3 118 9 188 17 201 9 15 9 23 0 34 -19 22 -18 134 2 156 10 11 16 36 16 69 0
29 6 61 12 72 10 15 10 22 0 32 -7 7 -12 39 -12 76 0 53 -3 63 -15 58 -8 -3
-15 0 -15 6 0 7 -10 22 -22 35 l-21 23 21 0 c20 0 22 5 22 49 0 31 5 53 15 61
10 8 14 28 12 65 -2 47 2 58 25 82 21 22 28 40 29 76 1 26 8 52 16 58 7 6 13
20 13 30 0 19 -2 26 -33 87 -19 38 -21 63 -8 78 5 5 11 61 13 125 2 79 7 121
17 132 9 12 10 21 3 30 -17 21 -19 81 -2 94 12 9 13 14 3 24 -17 17 -16 29 2
29 13 0 15 23 15 149 0 89 4 152 10 156 6 3 10 24 10 45 0 21 -4 42 -10 45
-15 9 -12 48 5 81 8 16 15 39 15 51 0 12 5 25 10 28 14 8 13 98 -1 112 -7 7
-8 19 -4 30 14 32 15 75 4 90 -9 10 -8 18 5 31 12 14 16 38 16 90 0 66 4 84
32 132 19 35 21 43 7 54 -18 14 -18 94 0 105 22 14 40 58 28 70 -8 8 -7 17 0
33 14 29 26 265 24 464 -2 99 1 154 8 159 14 8 15 167 1 181 -16 16 -16 169
-1 188 11 13 14 58 14 186 0 139 3 170 15 175 11 4 12 8 3 19 -8 9 -12 106
-13 312 -2 272 0 301 16 326 11 17 17 42 15 65 -1 21 -1 93 0 161 1 90 4 122
14 122 9 0 12 42 12 175 0 126 3 177 13 187 14 14 17 118 3 118 -6 0 -12 -21
-13 -47 -2 -27 -2 20 0 102 3 83 9 156 15 163 6 8 5 17 -3 27 -10 13 -10 19 2
33 9 10 15 36 15 65 0 26 5 53 11 59 15 15 16 194 2 203 -13 8 -13 118 1 132
6 6 12 63 13 133 2 105 6 125 21 136 15 11 17 22 12 64 -3 27 -2 50 3 50 12 0
40 29 40 41 0 6 -7 9 -16 7 -9 -2 -20 4 -24 12 -4 8 -12 25 -18 37 -16 30 -15
68 1 93 10 17 9 22 -3 31 -13 8 -10 13 14 33 25 21 29 31 31 87 2 35 4 66 5
69 1 3 1 45 0 93 -1 49 3 94 8 100 12 15 23 257 12 257 -5 0 -11 14 -15 31 -4
17 -13 33 -20 35 -7 3 -16 21 -20 41 -4 21 -11 33 -18 30 -9 -3 -12 41 -11
177 0 154 3 186 17 206 21 31 22 70 2 70 -9 0 -15 9 -15 21 0 12 5 19 12 17
18 -6 48 35 42 59 -3 11 1 25 10 32 12 10 16 33 16 98 0 70 3 84 14 80 12 -5
16 9 22 64 4 38 11 72 15 75 12 7 11 61 -1 69 -15 9 -12 36 5 55 10 11 16 41
17 91 1 41 5 79 9 84 5 6 11 42 14 80 7 70 9 79 39 148 20 46 20 48 1 41 -18
-7 -20 12 -2 23 19 13 47 72 47 102 0 14 7 37 16 50 12 17 15 35 10 67 -3 26
-2 44 4 44 6 0 10 6 10 14 0 7 7 19 15 26 9 8 15 29 15 56 0 23 5 46 10 49 6
3 10 24 10 46 0 29 4 39 16 39 14 0 14 -3 4 -15 -7 -9 -10 -18 -6 -22 11 -11
17 4 23 49 4 38 12 62 43 133 5 11 10 52 12 91 3 60 1 74 -14 83 -11 7 -18 23
-18 41 0 33 -16 67 -40 87 -13 10 -13 12 3 18 21 9 23 45 2 45 -8 0 -18 12
-21 26 -9 34 3 155 16 168 13 13 13 53 0 61 -5 3 -10 17 -10 31 0 13 5 24 10
24 6 0 10 -11 10 -25 0 -16 6 -25 15 -25 19 0 19 30 0 66 -16 32 -12 189 6
210 7 8 6 15 -2 19 -8 6 -8 9 0 15 11 6 18 35 20 78 1 6 8 12 16 12 18 0 20
17 3 23 -10 4 -10 7 0 18 6 7 12 30 12 50 0 20 7 42 15 49 8 7 15 27 15 46 0
39 17 82 42 107 10 10 18 29 18 43 0 26 15 57 43 86 23 24 22 50 -3 65 -17 11
-19 21 -14 80 3 38 9 77 14 88 5 11 11 49 13 84 3 35 10 68 16 74 6 6 11 31
11 56 0 27 6 51 17 63 13 15 14 23 5 44 -24 51 -13 120 26 162 6 7 12 21 13
30 2 62 12 118 22 124 7 4 13 42 16 93 2 55 7 85 15 85 20 0 38 59 42 137 3
52 9 82 20 94 12 14 15 30 11 64 -4 40 -2 45 12 40 13 -5 14 -4 4 6 -17 17
-16 29 2 29 8 0 15 9 15 20 0 11 -7 20 -15 20 -20 0 -20 3 12 59 2 2 9 -2 17
-8 13 -11 14 -8 10 21 -4 19 1 58 11 88 20 70 23 348 3 380 -10 16 -10 24 0
40 14 22 17 156 3 164 -14 9 -20 45 -6 40 9 -4 13 24 18 106 3 66 11 117 18
126 16 20 19 215 3 235 -18 22 -27 99 -12 99 16 0 39 47 31 66 -3 7 2 17 11
20 9 3 16 16 16 28 0 13 11 33 25 46 14 13 25 33 25 45 0 29 20 85 30 85 4 0
6 17 3 38 -4 27 -1 42 11 51 19 16 21 42 4 60 -11 10 -10 15 5 25 13 10 17 27
17 69 0 31 4 58 9 61 4 3 11 25 14 49 4 24 13 57 21 73 8 16 29 58 46 94 38
78 70 132 93 158 9 10 17 33 17 51 0 19 6 34 15 37 8 4 15 16 15 28 0 12 13
40 30 62 16 21 30 49 30 60 0 12 9 33 20 47 11 14 20 32 20 40 0 9 5 19 11 23
6 3 21 27 33 53 11 25 31 60 44 78 12 17 22 34 22 38 0 4 14 24 30 45 20 25
32 54 36 87 4 26 11 54 17 61 6 8 6 16 -1 25 -5 6 -12 50 -14 97 -3 48 -10 95
-18 107 -12 18 -12 25 -2 35 14 14 17 148 4 176 -5 9 -16 32 -25 49 -9 19 -12
35 -6 38 15 10 11 55 -6 55 -10 0 -15 10 -15 34 0 19 -4 37 -9 40 -15 10 -24
237 -10 271 7 17 13 39 15 50 1 11 5 55 9 98 5 43 12 80 16 83 12 7 11 81 -1
89 -12 8 -13 82 -1 89 5 3 12 23 16 43 4 21 12 44 18 51 7 9 12 94 14 234 3
177 1 225 -10 242 -8 12 -18 36 -21 53 -4 17 -14 37 -22 44 -8 6 -14 17 -14
23 0 6 -9 17 -20 24 -11 6 -26 28 -34 47 l-15 35 -70 0 c-38 0 -73 -4 -76 -10
-3 -5 -19 -10 -34 -10 -20 0 -35 10 -57 40 -16 22 -34 40 -39 40 -13 0 -7 68
6 76 5 3 9 15 9 28 0 26 28 56 53 56 9 0 17 6 17 14 0 7 7 26 15 42 11 22 12
30 2 36 -9 6 -9 10 1 20 6 6 12 20 12 29 0 28 51 56 115 64 33 4 65 11 70 15
6 5 28 11 50 15 22 4 45 11 50 15 6 5 27 11 48 15 20 4 40 11 43 16 3 5 17 9
32 9 15 0 36 6 47 14 11 7 44 17 72 21 29 4 55 11 58 15 3 5 34 12 70 15 36 4
67 11 70 15 3 5 24 11 48 15 23 4 47 11 52 15 6 4 26 11 45 15 19 4 40 11 45
15 6 4 25 11 43 15 18 4 45 13 60 21 15 8 34 14 42 14 8 0 24 7 34 15 11 8 32
15 46 15 14 0 30 4 36 10 5 5 39 13 74 16 36 4 70 11 76 15 6 5 57 12 113 15
56 4 104 11 107 15 3 5 27 11 55 15 27 4 52 11 55 15 3 5 15 9 27 9 12 0 35 7
50 15 15 8 63 17 105 21 42 4 82 10 87 14 6 5 48 11 95 15 47 4 90 12 97 17 6
5 38 12 70 15 32 3 63 9 68 13 6 5 46 11 90 15 44 4 85 11 90 15 6 4 34 10 64
13 29 4 58 11 65 16 6 5 45 13 86 16 41 4 80 11 85 15 6 4 54 10 109 13 54 4
104 12 112 17 7 6 38 14 68 17 31 3 56 9 56 13 0 4 23 10 51 13 28 4 56 10 63
15 6 6 65 13 131 17 66 4 125 10 130 15 6 4 41 10 79 13 37 4 73 10 80 15 6 5
44 12 85 16 41 3 79 10 85 15 6 5 47 11 91 15 44 4 84 11 90 15 5 5 66 11 134
15 68 3 129 10 135 15 6 4 63 12 126 15 63 4 119 11 125 15 5 5 59 11 119 15
60 3 114 10 120 15 6 4 51 11 100 15 49 3 94 10 100 15 6 5 40 12 76 16 36 4
70 11 75 15 6 4 53 11 105 15 52 4 100 11 105 15 6 4 59 10 120 14 60 4 115
12 122 18 9 7 13 7 13 -1 0 -14 42 -15 56 -1 6 6 50 15 98 20 48 6 100 17 114
25 15 9 41 24 58 35 18 10 54 22 80 25 27 4 54 12 61 17 6 5 87 12 180 15 92
3 173 9 178 13 6 4 32 10 59 14 27 3 54 10 60 15 6 4 42 11 80 14 37 4 73 11
80 16 6 5 101 12 211 16 110 4 205 11 210 15 6 4 64 10 130 14 65 4 124 11
130 16 17 14 423 14 480 0 33 -9 133 -13 296 -14 170 -1 250 -5 260 -13 8 -6
56 -14 107 -18 51 -4 95 -12 98 -17 3 -5 12 -4 20 3 7 6 44 14 81 16 38 3 74
10 81 16 7 6 99 12 210 15 108 2 202 8 207 12 6 4 31 11 57 14 26 4 50 11 53
17 4 5 15 9 26 9 10 0 19 7 19 15 0 10 10 15 28 15 16 0 37 7 48 15 10 8 32
15 47 15 39 0 88 25 122 60 16 17 37 30 47 30 9 0 27 14 40 30 13 18 26 26 31
21 5 -5 20 -3 35 5 15 8 44 14 64 14 20 0 39 4 42 9 3 5 36 12 73 16 38 4 73
11 80 17 6 5 47 12 90 15 43 3 83 10 90 15 6 5 38 12 70 15 32 3 64 10 71 16
8 6 17 5 27 -3 10 -8 19 -9 28 -3 6 6 36 13 66 16 30 4 59 11 65 17 5 5 17 10
26 10 8 0 27 6 41 14 14 7 42 16 61 20 19 3 45 17 58 31 13 14 34 25 47 25 13
0 32 9 43 20 11 11 29 20 41 20 11 0 35 11 52 24 18 13 47 27 64 31 18 3 35
11 38 16 4 5 14 9 24 9 10 0 24 6 30 14 7 8 42 17 84 21 40 4 77 11 82 15 6 4
24 11 41 14 39 9 129 100 138 141 4 17 19 42 33 57 l25 26 -23 12 c-22 12 -22
13 -3 27 10 8 19 19 19 26 0 7 10 11 21 9 14 -2 32 10 53 34 42 47 107 81 171
90 28 4 53 11 56 15 3 5 21 9 41 9 20 0 44 7 53 15 10 9 34 18 54 22 25 4 51
21 90 59 30 30 59 54 65 54 14 0 14 27 1 35 -15 9 -2 25 21 25 12 0 19 7 19
19 0 11 4 23 10 26 5 3 17 22 26 41 12 26 21 33 34 29 18 -6 33 8 36 33 4 21
25 42 44 42 10 0 23 7 30 15 7 8 17 15 23 15 5 0 24 11 41 23 17 13 45 27 61
31 17 4 44 18 62 32 17 13 38 24 45 24 8 0 27 14 44 31 16 17 40 35 52 40 13
5 26 18 29 29 3 11 11 20 17 20 19 0 66 54 66 76 0 26 11 41 35 45 16 4 19 11
17 37 -2 18 2 40 9 48 10 12 9 13 -5 8 -10 -4 -18 0 -22 12 -3 11 -10 27 -15
36 -5 10 -9 30 -9 45 0 14 -7 34 -16 44 -21 23 -12 46 18 51 19 2 22 8 20 35
-3 26 4 40 33 72 21 22 47 41 58 43 12 2 27 13 33 25 21 44 45 63 70 57 18 -5
24 -2 24 11 0 19 22 40 58 55 13 6 22 16 21 22 -4 19 41 88 57 88 8 0 14 8 14
17 0 15 2 15 14 -2 12 -17 14 -16 31 21 9 21 22 49 28 62 8 17 8 28 -1 42 -7
11 -12 33 -12 49 0 17 -4 33 -10 36 -5 3 -10 26 -10 51 0 38 4 46 25 56 33 15
26 33 -13 33 -36 0 -52 12 -28 21 16 6 17 16 11 78 -4 39 -11 76 -15 81 -4 6
-10 26 -13 46 -4 30 -1 41 18 59 24 23 24 50 -1 71 -10 8 -14 36 -14 96 l0 85
-57 -3 c-32 -1 -70 1 -85 5 -16 5 -35 3 -50 -5 -37 -20 -88 -63 -88 -75 0 -6
-11 -21 -25 -34 -14 -13 -23 -30 -21 -37 3 -7 -3 -28 -14 -46 -11 -17 -25 -43
-32 -57 -7 -14 -25 -41 -40 -61 -15 -20 -28 -42 -28 -48 0 -6 -16 -34 -35 -61
-20 -28 -33 -55 -31 -59 8 -13 -19 -61 -56 -101 -18 -19 -33 -38 -34 -42 -1
-5 -2 -12 -3 -18 0 -5 -7 -10 -14 -10 -7 0 -35 -22 -62 -50 -27 -27 -56 -50
-65 -50 -9 0 -31 -13 -50 -30 -19 -16 -40 -29 -45 -30 -6 0 -33 -20 -62 -45
-28 -25 -58 -45 -66 -45 -8 0 -20 -7 -27 -15 -7 -8 -20 -15 -30 -15 -10 0 -23
-7 -30 -15 -7 -8 -17 -15 -22 -15 -6 0 -27 -13 -48 -30 -21 -16 -50 -30 -64
-30 -14 0 -26 -4 -26 -8 0 -4 -30 -23 -67 -41 -38 -18 -75 -37 -83 -41 -8 -5
-49 -26 -90 -46 -41 -21 -76 -41 -78 -46 -2 -4 -14 -8 -26 -8 -13 0 -35 -9
-49 -20 -29 -23 -89 -27 -106 -7 -6 8 -14 28 -17 45 -4 18 -10 32 -15 32 -19
0 -6 19 56 84 36 38 64 73 62 80 -2 7 -54 12 -157 14 -96 1 -159 7 -167 14
-10 8 -17 8 -25 0 -14 -14 -64 -16 -72 -3 -4 5 -24 12 -46 16 -22 4 -42 11
-46 16 -8 14 -36 11 -55 -7 -16 -15 -20 -15 -50 0 -37 19 -139 22 -156 5 -9
-9 -21 -8 -46 5 -19 9 -49 16 -66 16 -53 0 -51 27 5 77 27 23 54 43 60 43 24
0 64 26 64 43 0 10 8 17 19 17 11 0 23 5 26 10 3 6 16 10 29 10 13 0 31 12 44
30 18 24 30 30 60 30 20 0 50 7 66 15 15 8 48 15 73 15 36 0 46 4 50 20 4 14
14 20 33 20 26 0 60 26 60 46 0 5 27 9 60 9 33 1 65 6 72 13 7 7 21 12 33 12
11 0 30 7 42 15 12 8 52 17 89 19 37 3 70 9 73 15 4 5 26 13 49 17 23 4 45 11
48 15 7 12 71 11 79 -1 9 -14 55 -12 55 3 0 8 17 12 53 13 32 0 62 7 78 17 18
12 43 17 78 16 28 -1 57 3 63 9 7 7 22 12 33 12 12 0 31 13 42 29 17 22 32 29
73 34 62 7 110 27 110 44 0 7 6 13 14 13 7 0 16 9 19 20 6 22 27 28 27 8 0
-13 13 6 47 70 9 18 23 30 30 28 15 -6 115 92 107 106 -3 5 6 18 20 29 14 11
25 23 25 27 -1 4 2 17 6 29 6 18 13 21 30 17 15 -4 24 0 28 10 4 9 12 16 19
16 7 0 23 22 35 48 12 27 31 56 42 66 11 10 17 24 14 32 -4 12 0 14 19 9 25
-6 78 9 78 22 -1 12 -70 44 -80 38 -5 -3 -11 -1 -15 4 -3 6 4 15 16 21 15 9
18 15 10 23 -6 6 -11 22 -11 34 0 13 -8 35 -17 49 -16 24 -15 28 1 59 11 20
16 43 13 57 -5 18 -1 26 15 33 29 13 34 33 11 41 -10 4 -28 16 -39 26 -19 16
-31 18 -83 12 -34 -4 -64 -11 -67 -15 -3 -5 -13 -9 -24 -9 -10 0 -20 -6 -23
-14 -3 -8 -26 -18 -52 -21 -25 -4 -47 -11 -50 -15 -3 -5 -23 -11 -45 -15 -22
-4 -42 -10 -45 -15 -3 -5 -23 -11 -45 -15 -22 -4 -42 -11 -46 -16 -7 -12 -51
-12 -59 1 -3 6 -21 10 -38 10 -21 0 -36 6 -42 19 -42 78 -57 101 -70 101 -8 0
-15 9 -15 20 0 16 7 20 32 20 17 0 45 10 62 23 17 13 50 26 73 29 30 4 56 18
91 47 26 23 55 41 64 41 9 0 21 7 28 15 7 8 20 15 30 15 10 0 24 7 31 16 7 9
24 20 37 25 13 5 26 18 29 29 3 11 13 20 23 20 19 0 70 60 70 83 0 14 60 67
76 67 4 0 33 23 65 50 32 28 62 50 69 50 14 0 149 141 150 156 0 6 9 19 20 29
11 10 17 22 14 27 -3 5 2 18 12 29 16 18 17 22 3 29 -18 10 -26 135 -9 145 8
5 8 11 0 20 -8 9 -4 17 14 29 14 9 30 16 36 16 15 0 12 41 -5 54 -10 8 -16 36
-18 93 -4 80 -5 82 -43 117 -21 20 -45 36 -52 36 -8 0 -12 6 -10 12 3 7 -6 21
-19 31 -17 14 -23 29 -23 56 0 67 -11 101 -31 101 -24 0 -24 12 0 34 19 17 19
18 -4 54 -40 61 -107 142 -114 138 -4 -3 -13 -1 -21 4 -8 5 -21 3 -32 -3 -23
-15 -52 1 -56 32 -3 20 -32 31 -32 11 0 -5 -4 -10 -9 -10 -5 0 -8 32 -7 70 1
66 0 70 -21 70 -13 0 -23 5 -23 10 0 6 12 10 26 10 23 0 24 1 10 16 -21 21
-20 31 5 45 21 11 19 13 -30 63 -28 28 -51 57 -51 64 0 6 -13 23 -29 37 -23
21 -30 37 -35 85 -4 32 -13 64 -21 70 -8 7 -15 19 -15 26 0 8 -11 19 -24 25
-15 7 -26 23 -30 41 -3 17 -19 46 -36 65 -33 37 -39 63 -14 63 13 0 14 3 4 15
-7 8 -16 12 -21 9 -17 -10 -30 6 -19 26 7 13 6 26 -4 44 -14 27 -26 25 -26 -6
0 -22 -13 -23 -31 -2 -9 11 -10 20 -2 32 10 17 7 27 -19 72 -5 8 -11 23 -14
33 -4 9 -15 17 -25 17 -12 0 -19 9 -21 28 -2 19 -9 28 -25 30 -13 2 -23 9 -23
17 0 7 -11 20 -25 29 -14 9 -24 22 -22 28 1 7 -8 14 -20 16 -13 2 -20 8 -17
16 3 7 -11 27 -30 44 -20 17 -36 40 -36 50 0 11 -7 25 -15 32 -8 7 -15 19 -15
26 0 8 -8 14 -18 14 -25 0 -34 11 -21 26 7 9 1 19 -24 38 -19 14 -41 26 -49
26 -9 0 -41 28 -71 62 -44 50 -58 60 -69 51 -11 -10 -17 -5 -30 26 -20 46 -97
131 -120 131 -10 0 -18 12 -22 33 -5 21 -17 39 -39 52 -32 20 -33 25 -40 106
-1 19 -6 25 -19 21 -21 -5 -24 18 -6 36 9 9 7 13 -6 18 -11 4 -21 1 -26 -7 -5
-7 -12 -10 -17 -6 -4 5 -2 11 4 15 12 8 10 19 -13 85 -4 12 -13 17 -25 14 -12
-3 -16 0 -12 9 3 9 -2 14 -16 14 -12 0 -21 5 -21 12 0 7 -14 27 -32 45 -17 18
-32 40 -33 50 -2 37 -15 46 -37 26 -21 -18 -21 -18 -15 7 8 35 -26 78 -48 60
-22 -18 -180 133 -180 172 0 30 -82 123 -122 139 -13 5 -23 15 -23 23 0 7 -6
26 -14 40 -12 23 -15 24 -26 11 -19 -23 -32 -18 -80 30 -24 25 -50 45 -58 45
-16 0 -76 58 -85 83 -4 9 -15 17 -26 17 -11 0 -23 5 -26 10 -8 13 -58 13 -71
0 -5 -5 -75 -11 -156 -12 -143 -3 -147 -2 -172 21 -14 14 -29 21 -33 18 -3 -4
-12 -2 -19 4 -8 6 -21 8 -31 4 -10 -5 -23 -7 -30 -6 -6 1 -14 -3 -18 -9 -3 -5
-17 -10 -30 -10 -13 0 -27 -4 -30 -10 -3 -5 -20 -16 -38 -23 -70 -30 -84 -38
-130 -72 -39 -29 -51 -34 -67 -25 -11 6 -51 10 -88 8 -37 -1 -73 2 -80 6 -7 4
-20 2 -28 -5 -15 -12 -66 -16 -94 -6 -8 3 -34 8 -57 11 -24 4 -58 15 -78 26
-20 11 -37 15 -40 10 -4 -6 -65 -10 -140 -10 -84 0 -136 -4 -140 -11 -4 -6
-21 -9 -39 -8 -17 2 -36 0 -42 -3 -5 -4 -16 -3 -24 2 -9 6 -23 2 -40 -10 -18
-13 -30 -16 -43 -9 -9 6 -22 7 -27 4 -6 -3 -19 0 -31 8 -11 8 -29 12 -40 10
-11 -3 -27 1 -37 9 -9 7 -30 20 -47 27 -16 7 -43 19 -58 27 -34 17 -69 18 -84
3 -8 -8 -13 -8 -17 0 -9 14 -163 15 -171 1 -3 -5 -44 -10 -90 -10 -46 0 -87 5
-90 10 -8 14 -252 13 -260 0 -4 -7 -11 -7 -18 -2 -7 5 -35 12 -62 16 -38 4
-56 2 -73 -10 -15 -11 -27 -13 -35 -6 -7 5 -89 12 -184 14 -122 3 -176 8 -187
17 -19 16 -206 15 -231 0 -5 -4 -26 -10 -45 -14 -19 -4 -41 -12 -48 -18 -7 -6
-73 -12 -149 -13 -79 -2 -140 -7 -146 -13 -15 -15 -150 -14 -164 0 -7 7 -38
10 -82 7 -55 -3 -68 -1 -59 9 15 18 -19 30 -43 15 -23 -15 -96 -16 -104 -2 -3
6 -24 10 -45 10 -21 0 -42 -4 -45 -10 -10 -17 -115 -12 -121 5 -4 8 -15 15
-27 15 -11 0 -35 11 -53 25 -18 14 -36 24 -41 23 -4 0 -24 -3 -43 -5z m-1760
-123 c0 -5 -11 -10 -25 -10 -14 0 -25 5 -25 10 0 6 11 10 25 10 14 0 25 -4 25
-10z m-3660 -330 c0 -5 -4 -10 -10 -10 -5 0 -10 5 -10 10 0 6 5 10 10 10 6 0
10 -4 10 -10z m7300 -2171 c0 -5 -4 -9 -10 -9 -5 0 -10 7 -10 16 0 8 5 12 10
9 6 -3 10 -10 10 -16z m-30 -8 c0 -12 -20 -25 -27 -18 -7 7 6 27 18 27 5 0 9
-4 9 -9z m5 -43 c-13 -42 -31 -53 -71 -42 -40 10 -59 34 -27 34 11 0 23 4 29
9 8 8 22 12 67 20 5 0 5 -9 2 -21z m3303 -1900 c-2 -14 -14 -26 -30 -32 -34
-12 -38 -8 -31 27 4 22 11 27 35 27 25 0 29 -4 26 -22z m-108 -48 c0 -5 -9
-10 -20 -10 -11 0 -20 5 -20 10 0 6 9 10 20 10 11 0 20 -4 20 -10z m-1193
-503 c3 -4 -3 -17 -13 -28 -18 -20 -49 -25 -58 -10 -9 15 -68 -19 -62 -35 4
-10 -2 -14 -18 -14 -13 0 -29 -7 -36 -15 -8 -10 -30 -15 -61 -15 -26 0 -51 -4
-54 -10 -12 -20 -48 -9 -86 25 -22 19 -44 35 -49 35 -21 0 -9 16 23 29 17 8
40 21 50 29 13 12 20 13 29 4 16 -16 49 -15 72 3 14 11 48 14 138 13 65 -1
122 -6 125 -11z m-299 -474 c16 -16 16 -16 -1 -10 -10 4 -27 7 -38 7 -10 0
-19 5 -19 10 0 16 40 11 58 -7z m-48 -43 c0 -5 -7 -10 -15 -10 -8 0 -15 5 -15
10 0 6 7 10 15 10 8 0 15 -4 15 -10z m-3276 -1458 c3 -5 -7 -21 -23 -36 -24
-23 -35 -27 -77 -24 -36 2 -49 7 -49 18 0 8 10 16 22 18 12 2 27 10 33 18 13
15 85 20 94 6z m2451 -11 c3 -5 1 -12 -5 -16 -5 -3 -10 1 -10 9 0 18 6 21 15
7z m-5 -159 c0 -23 -107 -46 -162 -35 -15 3 -28 12 -28 19 0 10 22 14 83 17
45 1 88 4 95 5 6 1 12 -2 12 -6z m-1497 -156 c26 -6 39 -26 16 -26 -5 0 -27
-13 -47 -29 -33 -25 -47 -29 -127 -34 -92 -5 -136 1 -142 19 -5 14 41 34 76
34 16 0 34 7 41 15 8 10 31 15 67 15 39 0 55 4 59 15 4 10 10 12 18 7 6 -5 23
-12 39 -16z m-662 -26 c27 0 42 -25 24 -40 -21 -17 -19 -30 5 -30 30 0 24 -19
-7 -26 -16 -4 -33 -11 -39 -16 -7 -5 -42 -11 -78 -15 -37 -3 -69 -10 -72 -14
-7 -13 -62 -11 -69 1 -4 6 -1 18 7 27 9 12 10 15 0 9 -19 -11 -52 3 -52 23 0
21 19 41 39 41 8 0 23 7 32 16 12 11 44 18 89 22 39 2 73 9 76 14 4 6 10 6 17
-1 6 -6 19 -11 28 -11z m-2446 -370 c-3 -5 -10 -10 -16 -10 -5 0 -9 5 -9 10 0
6 7 10 16 10 8 0 12 -4 9 -10z m1832 -497 c0 -16 3 -35 7 -44 6 -14 -4 -17
-70 -23 -66 -6 -78 -5 -90 11 -8 10 -13 29 -11 43 2 22 8 26 47 31 25 3 61 7
81 7 33 2 36 0 36 -25z m63 7 c0 -5 -7 -10 -15 -10 -8 0 -15 5 -15 10 0 6 7
10 15 10 8 0 15 -4 15 -10z m250 -26 c0 -9 -5 -14 -12 -12 -18 6 -21 28 -4 28
9 0 16 -7 16 -16z m-490 -30 c0 -8 -4 -12 -10 -9 -5 3 -10 10 -10 16 0 5 5 9
10 9 6 0 10 -7 10 -16z m-14480 -4764 c0 -21 -5 -30 -16 -30 -9 0 -13 5 -10
13 3 6 9 20 12 30 9 25 14 21 14 -13z m-210 -950 c0 -5 -2 -10 -4 -10 -3 0 -8
5 -11 10 -3 6 -1 10 4 10 6 0 11 -4 11 -10z m1830 -384 c0 -7 -11 -16 -25 -18
-30 -6 -39 1 -24 19 15 17 49 17 49 -1z m-1530 -1216 c0 -11 -26 -20 -56 -20
-22 0 -31 10 -20 21 9 8 76 7 76 -1z m-210 -864 c0 -11 -19 -15 -25 -6 -3 5 1
10 9 10 9 0 16 -2 16 -4z m7910 -4346 c0 -5 -4 -10 -10 -10 -5 0 -10 5 -10 10
0 6 5 10 10 10 6 0 10 -4 10 -10z m-440 -7380 c0 -5 -5 -10 -11 -10 -5 0 -7 5
-4 10 3 6 8 10 11 10 2 0 4 -4 4 -10z m-40 -600 c0 -5 -4 -10 -10 -10 -5 0
-10 5 -10 10 0 6 5 10 10 10 6 0 10 -4 10 -10z m-9632 -9229 c3 -8 -1 -12 -9
-9 -7 2 -15 10 -17 17 -3 8 1 12 9 9 7 -2 15 -10 17 -17z m1362 -1222 c0 -5
-7 -9 -15 -9 -15 0 -20 12 -9 23 8 8 24 -1 24 -14z m1296 -1406 c7 -10 14 -24
14 -30 0 -24 -25 -13 -42 17 -15 27 -15 30 -1 30 9 0 22 -8 29 -17z m1704
-959 c0 -14 -3 -14 -15 -4 -8 7 -15 14 -15 16 0 2 7 4 15 4 8 0 15 -7 15 -16z
m930 -484 c6 0 10 -4 10 -10 0 -5 -9 -10 -20 -10 -11 0 -20 7 -20 15 0 8 -7
15 -15 15 -16 0 -20 12 -8 23 3 4 15 -2 25 -13 10 -11 23 -20 28 -20z m1920
-510 c0 -5 -4 -10 -10 -10 -5 0 -10 5 -10 10 0 6 5 10 10 10 6 0 10 -4 10 -10z
m-330 -20 c0 -5 -4 -10 -9 -10 -6 0 -13 5 -16 10 -3 6 1 10 9 10 9 0 16 -4 16
-10z"/>
<path d="M39325 42927 c-4 -10 -5 -21 -1 -24 10 -10 18 4 13 24 -4 17 -4 17
-12 0z"/>
<path d="M41845 37591 c-3 -6 -16 -11 -29 -11 -12 0 -35 -13 -51 -30 -16 -16
-34 -30 -41 -30 -6 0 -18 -7 -25 -16 -33 -39 -183 -126 -204 -117 -9 3 -22 -1
-31 -8 -11 -9 -38 -12 -81 -11 -50 3 -69 0 -84 -14 -11 -9 -22 -15 -25 -12 -3
3 -26 -2 -52 -12 -26 -10 -63 -24 -82 -30 -19 -7 -43 -17 -52 -21 -10 -5 -29
-9 -42 -9 -14 0 -28 -4 -31 -10 -3 -5 -19 -10 -34 -10 -40 0 -89 -27 -105 -58
-8 -15 -23 -36 -35 -46 -12 -11 -21 -25 -21 -31 0 -7 -7 -19 -16 -26 -9 -7
-20 -23 -25 -36 -4 -12 -28 -31 -52 -42 -24 -11 -50 -27 -57 -36 -7 -8 -18
-15 -25 -15 -14 0 -105 -94 -105 -110 0 -5 -5 -10 -11 -10 -6 0 -27 -12 -45
-27 -19 -16 -49 -40 -68 -55 -18 -16 -38 -28 -44 -28 -6 0 -14 -9 -17 -20 -3
-11 -12 -20 -19 -20 -7 0 -23 -12 -37 -26 -13 -14 -42 -35 -64 -45 -22 -11
-55 -31 -74 -44 -19 -14 -44 -25 -57 -25 -13 0 -26 -4 -29 -10 -3 -5 -17 -10
-30 -10 -13 0 -27 -4 -30 -10 -3 -5 -19 -10 -34 -10 -42 0 -111 -83 -111 -134
0 -38 -20 -66 -109 -151 -45 -44 -96 -101 -113 -127 -17 -26 -37 -49 -44 -52
-7 -3 -22 -24 -33 -48 -11 -24 -36 -59 -55 -77 -20 -19 -36 -40 -36 -46 0 -20
-59 -69 -128 -105 -43 -22 -72 -45 -80 -62 -7 -16 -18 -28 -24 -28 -6 0 -28
-16 -50 -35 -21 -20 -52 -38 -68 -41 -19 -4 -74 -50 -164 -138 -75 -72 -167
-158 -205 -191 -44 -38 -69 -68 -70 -82 -1 -12 -6 -25 -11 -28 -6 -4 -19 -23
-29 -43 -11 -20 -38 -56 -60 -79 -23 -23 -41 -46 -41 -50 0 -4 -17 -17 -37
-28 -20 -11 -71 -58 -112 -105 -41 -47 -90 -93 -108 -103 -18 -9 -33 -22 -33
-27 0 -5 -12 -15 -27 -22 -15 -7 -59 -51 -99 -98 -102 -119 -193 -210 -210
-210 -4 0 -16 -8 -26 -17 -11 -9 -31 -17 -46 -18 -22 0 -28 -5 -30 -27 -2 -20
-17 -37 -50 -59 -26 -18 -54 -32 -64 -31 -9 0 -24 -8 -34 -19 -9 -10 -27 -19
-39 -19 -12 0 -30 -9 -40 -20 -10 -11 -23 -20 -29 -20 -7 0 -36 -25 -66 -56
-30 -30 -73 -64 -96 -74 -22 -11 -47 -26 -54 -35 -7 -8 -17 -15 -23 -15 -6 0
-18 -6 -26 -13 -9 -7 -35 -19 -58 -27 -24 -7 -50 -21 -59 -32 -10 -10 -27 -18
-40 -18 -13 0 -34 -14 -51 -34 -15 -18 -38 -39 -50 -45 -26 -13 -29 -32 -11
-61 11 -17 7 -25 -32 -65 -24 -25 -49 -45 -56 -45 -6 0 -19 -9 -29 -20 -10
-11 -23 -20 -30 -20 -6 0 -22 -12 -36 -26 -13 -14 -37 -33 -54 -41 -16 -9 -45
-29 -63 -44 -24 -21 -43 -29 -72 -29 -21 0 -42 5 -45 10 -3 6 -30 10 -60 10
-30 0 -57 -4 -60 -10 -3 -5 -17 -10 -30 -10 -13 0 -27 -4 -30 -10 -3 -5 -17
-10 -30 -10 -31 0 -45 -26 -45 -84 0 -31 -4 -46 -13 -46 -7 0 -33 -21 -57 -46
-25 -26 -63 -55 -86 -65 -22 -10 -49 -28 -60 -40 -21 -23 -153 -112 -228 -152
-27 -15 -61 -27 -77 -27 -15 0 -31 -4 -34 -10 -3 -5 -14 -10 -24 -10 -26 0
-74 -26 -101 -55 -13 -14 -29 -25 -35 -25 -6 0 -24 -14 -40 -30 -16 -17 -34
-29 -40 -27 -5 3 -19 0 -30 -6 -11 -6 -28 -11 -37 -12 -10 -1 -26 -9 -36 -19
-11 -9 -29 -19 -42 -21 -12 -2 -28 -10 -36 -16 -8 -7 -17 -9 -21 -6 -3 4 -15
0 -25 -8 -11 -7 -26 -11 -32 -9 -7 3 -21 -4 -31 -16 -11 -12 -31 -20 -50 -20
-19 0 -39 -8 -50 -20 -10 -11 -25 -20 -34 -20 -22 0 -304 -142 -326 -163 -9
-9 -27 -17 -41 -17 -14 0 -50 -13 -82 -29 -31 -15 -63 -26 -70 -24 -7 3 -40
-9 -73 -26 -34 -17 -69 -31 -79 -31 -10 0 -22 -4 -25 -10 -3 -5 -17 -10 -30
-10 -13 0 -27 -4 -30 -10 -3 -5 -16 -10 -29 -10 -13 0 -31 -9 -41 -20 -10 -11
-30 -20 -44 -20 -14 0 -41 -9 -59 -20 -18 -11 -46 -20 -62 -20 -16 0 -32 -4
-35 -10 -3 -5 -17 -10 -30 -10 -13 0 -27 -4 -30 -10 -3 -5 -19 -10 -34 -10
-15 0 -52 -13 -82 -29 -30 -16 -71 -32 -92 -35 -21 -4 -54 -16 -73 -27 -19
-10 -41 -19 -48 -19 -7 0 -48 -18 -91 -40 -43 -22 -84 -40 -91 -40 -7 0 -28
-8 -47 -19 -32 -18 -68 -26 -172 -37 -27 -3 -54 -10 -59 -15 -6 -5 -38 -9 -72
-9 -35 0 -66 -4 -69 -10 -3 -5 -26 -10 -50 -10 -24 0 -47 -4 -50 -10 -3 -5
-17 -10 -31 -10 -40 0 -265 -114 -303 -154 -19 -20 -40 -36 -46 -36 -7 0 -20
-9 -30 -20 -10 -11 -23 -20 -30 -20 -6 0 -21 -10 -33 -23 -12 -13 -42 -33 -66
-45 -24 -12 -64 -46 -90 -75 -71 -78 -147 -147 -163 -147 -12 0 -53 -43 -53
-56 0 -5 -14 -20 -31 -34 -18 -14 -40 -33 -49 -44 -10 -10 -23 -23 -28 -28 -6
-6 -19 -19 -30 -30 -11 -11 -24 -24 -28 -28 -36 -35 -103 -90 -111 -90 -5 0
-27 -18 -48 -40 -21 -22 -43 -40 -48 -40 -5 0 -29 -18 -54 -40 -25 -22 -54
-40 -65 -40 -10 0 -41 -16 -68 -35 -27 -19 -52 -35 -54 -35 -3 0 -25 -13 -49
-30 -25 -16 -53 -30 -64 -30 -18 0 -203 -177 -203 -195 0 -5 -39 -50 -87 -101
-126 -133 -163 -179 -163 -200 0 -22 -25 -94 -45 -135 -11 -20 -15 -61 -15
-141 l0 -114 -50 -49 c-28 -27 -49 -54 -47 -60 2 -5 -11 -38 -29 -72 -19 -34
-31 -69 -28 -76 2 -7 -6 -33 -20 -57 -13 -23 -22 -48 -20 -54 2 -6 -5 -36 -16
-66 -11 -30 -20 -65 -20 -77 0 -13 -4 -32 -10 -43 -5 -11 -14 -29 -20 -40 -6
-11 -10 -121 -10 -264 0 -153 4 -247 10 -251 6 -3 10 -17 10 -30 0 -13 5 -27
10 -30 6 -3 10 -15 10 -26 0 -10 4 -27 9 -37 5 -9 15 -37 22 -62 7 -25 15 -49
18 -55 3 -5 6 -18 6 -29 1 -10 9 -23 18 -28 10 -5 17 -18 17 -29 0 -20 14 -42
73 -113 15 -19 27 -38 27 -44 0 -5 7 -15 15 -22 8 -7 27 -37 42 -69 33 -67 74
-130 102 -155 12 -11 21 -24 21 -31 0 -6 16 -27 36 -46 20 -18 47 -51 60 -71
20 -31 48 -50 153 -103 71 -35 132 -69 136 -75 3 -5 16 -10 29 -10 13 0 31 -9
41 -20 10 -11 26 -20 36 -20 10 0 34 -9 54 -20 20 -11 44 -20 54 -20 23 0 75
-26 91 -45 7 -8 18 -15 25 -15 7 0 18 -7 25 -15 32 -39 283 -175 322 -175 9 0
20 -4 23 -10 3 -5 16 -10 28 -10 12 0 33 -9 47 -20 14 -11 35 -20 47 -20 12 0
25 -4 28 -10 3 -5 14 -10 23 -10 26 0 112 -44 112 -57 0 -6 9 -15 20 -18 11
-3 20 -11 20 -18 0 -15 81 -97 96 -97 6 0 17 -7 24 -15 16 -19 68 -45 91 -45
10 0 21 -4 24 -10 4 -6 63 -10 145 -10 82 0 141 4 145 10 3 6 16 10 28 10 25
0 109 28 117 39 11 15 61 41 79 41 11 0 23 5 26 10 4 6 53 10 115 10 62 0 111
-4 115 -10 3 -5 26 -10 50 -10 24 0 47 -4 50 -10 3 -5 42 -10 85 -10 43 0 82
-4 85 -10 3 -5 39 -10 80 -10 41 0 77 5 80 10 3 6 45 10 93 10 69 0 94 4 120
20 18 11 41 20 52 20 10 0 22 5 25 10 3 6 14 10 23 10 21 0 158 66 167 80 3 5
15 10 26 10 24 0 55 17 94 52 38 33 100 68 123 68 9 0 32 9 50 20 18 11 41 20
52 20 10 0 22 5 25 10 4 6 58 10 129 10 l123 0 98 -50 c76 -39 109 -50 145
-50 76 0 120 33 120 89 0 25 46 65 78 67 15 1 61 18 102 38 71 34 80 36 178
36 95 0 104 2 109 20 3 11 11 20 17 20 7 0 25 14 41 30 16 17 34 30 40 30 17
0 111 101 130 140 9 19 42 61 73 93 54 55 58 57 109 57 28 0 55 -4 58 -10 3
-5 35 -10 70 -10 35 0 67 -4 70 -10 11 -18 41 -11 66 16 13 14 32 29 41 33 9
3 34 40 55 81 29 57 44 76 61 78 26 4 56 -18 83 -62 17 -27 17 -30 -2 -63 -10
-18 -19 -52 -19 -74 0 -22 -5 -49 -10 -59 -6 -10 -11 -91 -11 -179 -1 -89 -5
-164 -10 -167 -5 -3 -9 -16 -9 -29 0 -13 -4 -27 -10 -30 -5 -3 -10 -30 -10
-60 0 -30 -4 -57 -10 -60 -5 -3 -10 -21 -10 -39 0 -20 -8 -40 -19 -50 -18 -16
-20 -36 -23 -261 -2 -178 -6 -247 -15 -257 -7 -6 -13 -25 -13 -42 0 -30 -15
-86 -31 -118 -5 -10 -9 -60 -9 -111 0 -60 -4 -97 -12 -105 -10 -10 -10 -17 0
-32 15 -24 16 -76 2 -85 -5 -3 -10 -42 -10 -85 0 -43 -4 -82 -10 -85 -5 -3
-10 -34 -10 -69 0 -34 -4 -66 -9 -72 -5 -5 -12 -31 -15 -59 -8 -80 -18 -125
-27 -131 -5 -3 -9 -38 -9 -78 0 -42 -5 -77 -12 -84 -9 -9 -8 -21 2 -53 11 -32
11 -45 2 -60 -7 -10 -12 -30 -12 -43 0 -14 -4 -28 -10 -31 -5 -3 -10 -24 -10
-45 0 -22 -9 -55 -20 -75 -12 -22 -20 -54 -20 -85 0 -27 -4 -52 -10 -55 -6 -4
-10 -70 -10 -164 0 -125 -3 -161 -14 -170 -8 -7 -17 -39 -20 -74 -8 -96 -17
-151 -27 -162 -5 -5 -9 -27 -9 -50 0 -23 -5 -46 -12 -53 -9 -9 -9 -15 0 -24
15 -15 17 -424 2 -433 -5 -3 -10 -30 -10 -59 0 -28 -4 -56 -10 -62 -5 -5 -11
-92 -13 -194 -5 -191 -13 -266 -28 -276 -12 -7 -12 -67 1 -80 5 -5 11 -92 14
-194 3 -102 8 -228 11 -281 6 -84 4 -100 -13 -131 -17 -29 -21 -58 -23 -169
-1 -74 -6 -142 -11 -151 -5 -10 -4 -19 2 -23 5 -3 10 -23 10 -44 0 -20 5 -42
11 -48 7 -7 9 -36 4 -84 -13 -153 -16 -372 -6 -382 14 -14 15 -294 1 -302 -5
-3 -10 -30 -10 -59 0 -40 -5 -57 -20 -71 -11 -10 -20 -31 -20 -46 0 -16 9 -44
20 -64 19 -34 20 -54 20 -420 0 -245 -4 -386 -10 -390 -5 -3 -10 -21 -10 -40
0 -19 -4 -37 -10 -40 -5 -3 -10 -30 -10 -59 0 -28 -4 -56 -10 -62 -5 -5 -11
-92 -14 -194 -5 -222 -12 -282 -37 -327 -10 -18 -19 -46 -19 -61 0 -16 -4 -32
-9 -37 -9 -9 -19 -59 -37 -185 -3 -19 -9 -44 -14 -55 -5 -11 -11 -40 -14 -65
-15 -125 -19 -146 -27 -155 -5 -5 -9 -28 -9 -52 0 -24 -9 -58 -20 -78 -11 -20
-20 -42 -20 -50 0 -8 -9 -30 -20 -50 -11 -20 -20 -44 -20 -53 0 -10 -4 -22 -9
-27 -16 -16 -31 -124 -31 -216 0 -48 -4 -91 -10 -94 -5 -3 -10 -17 -10 -30 0
-13 -4 -27 -10 -30 -5 -3 -10 -21 -10 -40 0 -19 -4 -37 -10 -40 -5 -3 -10 -21
-10 -38 0 -18 -9 -46 -19 -63 -19 -31 -30 -83 -34 -166 -1 -25 -5 -50 -9 -54
-5 -4 -8 -47 -8 -95 0 -48 -4 -91 -10 -94 -5 -3 -10 -14 -10 -24 0 -10 -12
-39 -26 -65 -14 -25 -23 -50 -19 -56 3 -5 1 -19 -6 -31 -13 -26 -17 -60 -28
-244 -5 -77 -14 -160 -20 -185 -12 -42 -21 -87 -37 -170 -4 -19 -10 -39 -14
-45 -15 -20 -26 -104 -46 -370 -3 -38 -10 -74 -15 -80 -5 -5 -9 -24 -9 -41 0
-18 -5 -36 -11 -40 -7 -4 -9 -20 -6 -39 3 -21 0 -40 -8 -52 -8 -10 -14 -42
-15 -75 0 -31 -4 -60 -10 -63 -6 -4 -10 -55 -10 -121 0 -63 -4 -122 -9 -132
-16 -33 -31 -89 -31 -120 0 -17 -5 -34 -11 -37 -6 -4 -9 -37 -8 -79 1 -40 -3
-81 -8 -92 -5 -10 -9 -41 -7 -69 3 -67 2 -65 17 -65 14 0 77 -60 77 -73 0 -4
-25 -57 -55 -118 -30 -61 -55 -123 -55 -139 0 -16 -4 -32 -10 -35 -6 -3 -10
-48 -10 -100 0 -52 -4 -97 -10 -100 -5 -3 -10 -42 -10 -85 0 -43 -4 -82 -10
-85 -5 -3 -10 -35 -10 -70 0 -35 -4 -67 -10 -70 -5 -3 -10 -16 -10 -29 0 -12
-5 -27 -11 -33 -10 -10 -8 -140 6 -407 4 -67 2 -118 -4 -130 -5 -12 -12 -41
-15 -66 -3 -25 -10 -70 -17 -100 -6 -30 -14 -152 -16 -270 -2 -118 -8 -219
-13 -224 -6 -6 -10 -40 -10 -77 0 -37 -4 -71 -10 -74 -5 -3 -10 -19 -10 -36 0
-16 5 -38 10 -49 6 -11 15 -29 20 -40 14 -27 13 -143 -2 -175 -9 -21 -9 -31 0
-46 15 -23 16 -225 2 -234 -5 -3 -10 -44 -10 -90 0 -46 5 -87 10 -90 13 -8 13
-237 1 -250 -10 -11 -19 -75 -27 -196 -5 -64 -2 -81 15 -113 12 -20 21 -47 21
-61 0 -13 5 -27 10 -30 6 -3 10 -44 10 -90 0 -46 -4 -87 -10 -90 -6 -4 -10
-70 -10 -166 0 -140 2 -165 20 -199 11 -22 20 -59 20 -84 0 -25 5 -48 10 -51
6 -3 10 -48 10 -100 0 -52 -4 -97 -10 -100 -6 -3 -10 -50 -10 -105 0 -55 4
-102 10 -105 6 -3 10 -17 10 -30 0 -13 5 -27 10 -30 6 -3 10 -15 10 -26 0 -10
4 -27 9 -37 32 -62 34 -73 23 -84 -15 -15 -17 -464 -2 -473 6 -4 10 -97 10
-246 0 -237 0 -240 26 -292 14 -28 26 -64 26 -79 -1 -15 4 -30 9 -33 16 -11
10 -41 -13 -61 -51 -44 -94 -53 -303 -60 -71 -3 -134 -9 -140 -15 -5 -5 -27
-9 -50 -9 -23 0 -45 -4 -51 -10 -5 -5 -88 -11 -184 -13 -207 -5 -229 -8 -277
-37 -20 -12 -45 -19 -55 -17 -11 3 -31 -5 -48 -20 -17 -14 -37 -22 -45 -19
-20 7 -84 -27 -120 -64 -16 -17 -36 -30 -45 -30 -9 0 -22 -6 -28 -12 -10 -10
-17 -10 -32 0 -33 20 -217 16 -265 -7 -134 -63 -178 -81 -200 -81 -13 0 -27
-4 -30 -10 -3 -5 -30 -10 -60 -10 -30 0 -57 -4 -60 -10 -4 -6 -57 -10 -125
-10 -68 0 -121 -4 -125 -10 -3 -5 -26 -10 -50 -10 -24 0 -46 -4 -49 -9 -3 -5
-20 -11 -38 -14 -71 -12 -115 -25 -155 -45 -23 -12 -56 -22 -72 -22 -16 0 -33
-4 -36 -10 -4 -6 -67 -10 -155 -10 -88 0 -151 -4 -155 -10 -3 -6 -21 -10 -40
-10 -19 0 -37 -4 -40 -10 -3 -5 -46 -10 -95 -10 -49 0 -92 -4 -95 -10 -8 -13
-52 -13 -60 0 -3 6 -43 10 -88 10 -47 0 -101 7 -125 15 -23 8 -53 13 -66 9
-13 -3 -27 -1 -30 5 -10 15 -56 14 -56 -1 0 -6 -7 -20 -16 -30 -10 -10 -18
-32 -19 -49 -4 -52 -75 -109 -137 -109 -15 0 -28 -6 -28 -12 -1 -28 -69 -58
-130 -58 -32 0 -62 5 -65 10 -3 6 -21 10 -39 10 -17 0 -37 5 -42 10 -13 13
-363 7 -449 -8 -84 -15 -114 -23 -121 -33 -3 -5 -20 -9 -39 -9 -19 0 -37 -5
-40 -10 -3 -6 -30 -10 -60 -10 -30 0 -57 -4 -60 -10 -3 -5 -33 -10 -65 -10
-32 0 -62 -4 -65 -10 -3 -5 -16 -10 -29 -10 -13 0 -31 -9 -41 -20 -10 -11 -26
-20 -35 -20 -25 0 -73 -26 -100 -55 -13 -14 -29 -25 -37 -25 -7 0 -13 -6 -13
-13 0 -14 -41 -57 -54 -57 -4 0 -26 -18 -48 -40 -49 -47 -95 -53 -153 -20 -26
15 -54 20 -103 20 -38 0 -73 5 -79 11 -7 7 -17 8 -25 3 -27 -18 -84 -34 -121
-34 -24 0 -60 -12 -94 -30 -30 -16 -60 -30 -66 -30 -7 0 -39 -13 -70 -30 -35
-18 -73 -30 -96 -30 -22 0 -44 -6 -51 -15 -7 -9 -28 -23 -46 -31 -33 -16 -62
-56 -105 -144 -12 -25 -26 -53 -30 -62 -5 -10 -9 -33 -9 -51 0 -32 -28 -96
-69 -162 -11 -16 -20 -38 -20 -47 -1 -10 -10 -33 -21 -53 -11 -20 -20 -52 -20
-73 0 -36 -19 -105 -33 -118 -4 -4 -7 -17 -7 -29 0 -13 -7 -28 -15 -35 -19
-16 -45 -68 -45 -90 0 -9 -9 -25 -20 -35 -11 -10 -20 -23 -20 -28 0 -6 -8 -19
-17 -29 -9 -10 -18 -26 -20 -36 -1 -9 -6 -34 -9 -55 -3 -20 -10 -40 -15 -43
-5 -3 -9 -20 -9 -39 0 -19 -4 -37 -10 -40 -5 -3 -10 -30 -10 -60 0 -30 5 -57
10 -60 6 -3 10 -29 10 -56 0 -30 8 -65 20 -90 12 -23 20 -56 19 -77 -2 -24 7
-56 24 -89 19 -38 27 -68 27 -106 0 -30 3 -57 7 -61 4 -4 9 -24 10 -45 1 -22
16 -64 33 -94 16 -30 30 -64 30 -75 0 -11 13 -31 29 -44 16 -14 34 -42 42 -64
7 -21 18 -46 25 -54 6 -8 22 -40 34 -70 12 -30 27 -64 33 -75 5 -11 9 -41 8
-67 -1 -26 4 -60 12 -75 8 -15 12 -33 10 -40 -7 -18 31 -85 80 -139 24 -27 52
-64 61 -83 13 -24 21 -30 29 -22 19 19 40 13 34 -9 -5 -18 0 -20 37 -20 23 0
46 -4 51 -9 6 -6 41 -11 79 -13 66 -3 69 -4 87 -36 9 -19 24 -41 32 -50 8 -9
17 -25 20 -35 4 -9 17 -21 29 -26 33 -13 117 -102 124 -132 14 -52 15 -108 5
-128 -16 -29 23 -111 62 -129 15 -7 27 -19 27 -26 0 -29 32 -71 111 -147 45
-43 91 -79 101 -79 10 0 27 -6 38 -12 16 -10 24 -10 40 0 11 6 48 12 83 12 53
0 67 -4 85 -23 12 -13 22 -28 22 -34 0 -5 9 -18 20 -28 15 -14 20 -31 20 -71
0 -44 3 -54 20 -59 11 -3 20 -12 20 -19 0 -16 84 -56 118 -56 16 0 32 -4 37
-9 6 -5 24 -11 40 -13 l30 -3 3 -89 c2 -50 7 -95 11 -100 5 -6 11 -24 15 -40
7 -26 100 -136 116 -136 14 0 155 -151 155 -165 0 -8 7 -20 16 -27 8 -7 55
-56 103 -110 73 -80 96 -99 136 -112 27 -9 55 -16 62 -16 7 0 26 -16 41 -35
24 -30 34 -35 72 -35 24 0 47 -4 50 -10 4 -6 66 -10 153 -10 144 -1 148 -1
187 -29 27 -18 40 -35 39 -49 0 -12 5 -22 13 -22 7 0 18 -11 23 -25 5 -14 18
-28 27 -32 25 -8 63 -44 63 -58 0 -7 9 -20 20 -30 11 -10 20 -23 20 -29 0 -21
125 -136 147 -136 12 0 23 -8 26 -20 3 -14 14 -20 31 -20 59 0 107 -25 165
-85 32 -33 60 -65 62 -70 7 -18 140 -58 152 -46 7 7 67 11 162 11 l152 0 72
35 c61 30 82 35 141 35 38 0 72 -4 75 -10 8 -13 62 -13 70 0 3 5 23 10 43 10
27 0 53 11 95 40 54 38 61 40 130 40 l73 0 59 60 c33 33 65 60 72 60 7 0 13 7
13 15 0 16 42 30 65 22 13 -6 49 18 137 93 29 25 44 30 75 29 24 -2 49 4 63
14 14 9 32 17 41 17 9 0 24 9 34 20 10 11 28 20 41 20 13 0 26 4 29 10 3 5 17
10 30 10 13 0 27 5 30 10 3 6 39 10 80 10 41 0 77 5 80 10 3 6 22 10 41 10 20
0 45 5 56 11 14 8 23 8 31 0 6 -6 29 -11 52 -11 34 0 43 -5 57 -30 14 -25 24
-30 53 -30 20 0 53 9 75 20 24 12 59 20 89 20 32 0 64 7 86 20 22 12 54 20 85
20 27 0 52 5 55 10 4 6 72 10 172 10 156 0 165 -1 170 -20 7 -28 28 -25 52 9
11 15 35 34 53 40 18 7 51 21 73 32 22 10 48 19 57 19 9 0 20 5 23 10 3 6 15
10 26 10 10 0 42 16 69 35 l49 35 118 -1 c120 0 163 10 193 46 7 8 18 15 24
15 15 0 71 59 79 82 4 10 13 18 20 18 8 0 22 9 32 20 11 12 31 20 51 20 18 0
36 5 39 10 3 6 17 10 30 10 13 0 27 5 30 10 20 33 45 -26 46 -109 1 -85 35
-151 101 -197 45 -32 50 -33 138 -32 l90 1 0 43 c0 24 -4 46 -10 49 -5 3 -10
17 -10 30 0 13 -4 27 -10 30 -5 3 -10 15 -10 26 0 11 -9 38 -20 60 -30 58 -22
69 96 128 22 11 47 27 54 36 7 8 21 15 31 15 10 0 34 9 54 20 28 16 54 20 125
20 49 0 91 -4 94 -9 3 -5 14 -7 25 -4 11 3 21 -2 24 -11 9 -22 34 -20 42 4 3
11 12 20 19 20 7 0 21 9 31 20 13 14 31 20 61 20 24 0 46 4 49 10 3 5 19 10
35 10 16 0 32 5 35 10 3 6 19 10 35 10 16 0 45 9 65 20 22 12 54 20 85 20 27
0 52 4 55 10 3 5 21 10 40 10 19 0 36 4 39 9 3 4 64 10 137 13 75 3 135 10
142 17 6 6 19 11 29 11 9 0 33 9 53 20 20 11 44 20 54 20 10 0 26 9 35 19 17
18 39 23 161 37 28 3 54 10 60 15 5 5 24 9 41 9 18 0 36 4 39 10 3 5 34 10 68
10 46 0 68 5 87 20 14 11 34 20 46 20 11 0 29 9 39 20 10 11 31 20 46 20 16 0
45 11 65 25 20 14 47 25 60 25 12 0 26 4 29 10 3 5 26 10 50 10 24 0 47 4 50
10 3 5 17 10 31 10 14 0 34 5 45 11 15 8 24 7 35 -2 11 -9 20 -9 37 -1 12 6
67 14 122 17 55 3 143 8 195 11 88 5 97 4 114 -15 11 -12 25 -21 33 -21 7 0
13 -7 13 -16 0 -9 9 -18 20 -21 11 -3 20 -9 20 -14 0 -4 5 -20 10 -34 l10 -27
35 31 c20 17 39 31 44 31 31 0 131 -79 157 -125 10 -16 14 -18 25 -7 35 33 79
-5 79 -69 0 -21 8 -31 32 -43 32 -16 32 -16 70 21 33 32 38 44 36 73 -2 24
-10 38 -26 46 -34 17 -89 70 -97 93 -9 30 51 101 86 101 26 0 59 27 59 48 0 7
6 12 14 12 7 0 19 6 25 14 17 20 88 56 109 56 14 -1 13 -4 -5 -19 -27 -22 -29
-31 -8 -31 8 0 15 -6 15 -14 0 -10 16 -12 73 -9 67 5 75 8 112 43 38 36 58 45
133 57 18 3 35 9 38 14 8 14 40 10 54 -6 18 -22 77 -48 89 -40 6 3 11 17 11
31 0 13 4 24 8 24 12 0 72 94 72 112 0 19 82 98 102 98 9 0 20 5 23 10 4 6 70
10 163 10 154 1 158 1 217 30 46 23 73 30 120 30 34 0 66 5 73 12 9 9 15 9 24
0 15 -15 71 -16 98 -2 11 5 29 15 40 20 11 6 72 10 135 10 84 0 122 4 138 14
12 8 57 26 99 40 66 23 94 26 205 26 77 0 133 -4 140 -11 6 -6 57 -9 144 -6
152 5 203 13 220 33 6 8 18 14 26 14 8 0 33 9 55 20 23 11 49 20 58 20 9 0 25
9 35 20 12 14 31 20 59 20 34 0 47 -7 86 -45 53 -53 66 -57 179 -62 75 -4 85
-2 107 18 19 18 24 33 24 71 0 28 -7 59 -16 73 -9 14 -13 31 -10 37 22 44 46
76 73 93 16 11 36 34 43 50 21 50 50 75 86 75 22 0 34 -6 38 -17 8 -24 51 -43
96 -43 24 0 43 -7 55 -20 24 -26 83 -26 135 0 22 11 48 20 59 20 11 0 23 5 26
10 3 6 19 10 34 10 15 0 36 9 46 20 10 11 24 20 32 20 7 0 16 8 20 18 11 31
66 82 89 82 13 0 26 5 29 10 3 5 26 10 50 10 24 0 47 5 50 10 3 6 34 10 69 10
34 0 66 4 71 9 6 5 55 11 110 13 98 4 130 12 208 49 22 11 52 19 68 19 30 0
122 41 133 59 15 24 73 41 135 41 67 0 67 0 76 -32 7 -22 22 -39 48 -52 44
-23 60 -17 92 32 11 17 26 31 32 32 7 0 24 18 39 41 21 35 25 51 24 112 -1 40
-1 77 -1 83 1 6 19 19 40 29 22 10 42 24 45 31 4 10 25 14 75 14 61 0 76 -4
115 -31 25 -16 48 -34 51 -40 4 -5 14 -9 25 -9 10 0 37 -10 59 -22 32 -17 47
-20 68 -12 29 10 61 57 62 89 1 24 82 106 128 129 18 9 52 16 75 16 38 0 49 5
83 41 l40 40 164 -2 c144 -2 164 0 173 14 5 9 14 17 20 17 13 0 82 45 113 73
11 10 34 26 50 34 17 9 41 24 54 34 13 11 31 19 40 19 21 0 115 95 108 108 -4
5 0 17 7 27 11 15 26 18 95 16 65 -2 88 2 109 16 15 10 35 22 46 28 10 5 25
30 33 55 22 68 57 100 109 100 24 0 46 5 49 10 3 6 17 10 30 10 13 0 26 4 29
9 3 5 20 11 38 14 18 3 53 11 78 18 25 6 96 13 158 14 96 3 117 6 135 22 12
11 39 30 59 42 21 12 47 36 59 52 11 16 40 38 64 49 24 11 46 24 50 29 8 14
65 41 85 41 19 0 80 60 80 78 0 7 7 26 15 42 13 25 22 30 53 30 21 0 44 -6 50
-12 10 -10 17 -10 32 0 11 6 31 12 46 12 28 0 114 64 114 85 0 6 9 20 20 30
16 14 20 31 20 78 0 33 5 76 12 94 10 27 10 38 0 53 -7 11 -12 29 -12 39 0 11
-4 23 -10 26 -5 3 -10 28 -10 55 0 43 14 89 51 162 5 10 9 35 9 57 0 23 6 44
16 52 19 16 64 102 64 123 0 9 -9 31 -20 51 -25 44 -29 175 -6 194 20 17 56
88 56 110 0 10 9 26 20 36 12 11 20 31 20 50 0 17 5 36 10 41 12 12 -12 67
-38 87 -32 23 -42 56 -42 132 0 42 -6 85 -12 98 -20 34 -50 67 -63 67 -7 0
-20 9 -30 20 -10 11 -28 20 -40 20 -12 0 -30 9 -40 20 -16 18 -31 20 -136 20
-68 0 -120 4 -124 10 -3 6 -15 10 -26 10 -34 0 -139 79 -139 104 0 15 -90 56
-122 56 -15 0 -30 5 -33 10 -3 6 -26 10 -50 10 -24 0 -47 5 -51 11 -4 7 -24 9
-49 7 -25 -3 -49 0 -59 7 -14 11 -25 8 -69 -16 -40 -22 -65 -29 -109 -29 -31
0 -60 4 -63 10 -4 6 -53 10 -115 10 -62 0 -111 4 -115 10 -8 14 -188 13 -202
-1 -6 -6 -46 -12 -89 -13 -44 -2 -99 -9 -124 -15 -25 -7 -63 -15 -85 -18 -22
-3 -44 -9 -50 -14 -13 -12 -212 -11 -220 1 -8 13 -62 13 -70 0 -3 -5 -30 -10
-60 -10 -30 0 -57 -5 -60 -10 -3 -5 -30 -10 -59 -10 -28 0 -56 -4 -61 -9 -6
-5 -46 -12 -90 -14 -86 -5 -127 -12 -162 -29 -12 -6 -34 -7 -50 -3 -50 13
-185 17 -196 6 -6 -6 -20 -11 -32 -11 -27 0 -45 -18 -45 -45 0 -12 -5 -26 -12
-33 -9 -9 -8 -18 3 -38 12 -23 12 -28 0 -32 -7 -2 -21 -13 -29 -23 -9 -11 -28
-19 -43 -19 -30 0 -111 39 -142 68 -12 11 -35 22 -52 24 l-30 3 -3 79 c-2 44
0 86 4 95 4 9 8 23 9 32 4 33 88 139 110 139 14 0 47 35 40 42 -3 3 -26 1 -53
-4 -123 -25 -192 -19 -192 16 0 8 -7 19 -15 26 -21 18 -45 69 -45 98 0 13 -13
40 -30 59 -16 18 -30 42 -30 52 0 10 -9 26 -20 36 -11 10 -20 28 -20 40 0 11
-5 26 -12 33 -15 15 -134 16 -143 2 -3 -5 -28 -10 -55 -10 -27 0 -52 -4 -55
-10 -10 -16 -251 -13 -284 4 -40 21 -57 44 -43 58 19 19 15 92 -6 111 -23 21
-95 22 -112 2 -16 -19 -68 -45 -91 -45 -10 0 -21 -4 -24 -10 -8 -13 -62 -13
-70 0 -4 6 -74 10 -179 10 -95 0 -176 4 -181 9 -6 6 -77 12 -160 15 -212 7
-318 16 -330 27 -5 5 -22 9 -37 9 -39 0 -148 78 -148 105 0 6 -17 28 -38 48
-35 34 -43 37 -94 37 -31 0 -60 4 -63 10 -8 13 -122 13 -130 0 -8 -13 -232
-13 -240 0 -3 6 -37 10 -76 10 -38 0 -79 5 -92 12 -12 6 -30 15 -39 20 -25 12
-345 10 -353 -2 -3 -5 -39 -10 -80 -10 -41 0 -77 -4 -80 -10 -3 -6 -37 -10
-74 -10 -71 0 -101 16 -101 53 0 9 -4 19 -10 22 -5 3 -10 25 -10 49 0 32 -6
48 -23 64 -30 28 -41 28 -56 -4 -13 -30 -31 -27 -48 8 -7 13 -37 48 -68 77
-48 46 -55 57 -55 91 0 21 -4 42 -10 45 -5 3 -10 21 -10 40 0 19 -4 37 -10 40
-5 3 -10 34 -10 69 0 34 -4 66 -9 72 -5 5 -12 41 -15 79 -7 104 -13 134 -28
153 -7 9 -19 27 -25 39 -15 27 -17 159 -3 168 6 3 10 16 10 29 0 13 9 31 20
41 12 11 28 34 37 53 17 36 14 48 -34 121 -13 19 -23 44 -23 57 0 13 -4 24
-10 24 -5 0 -10 8 -10 18 0 20 -39 102 -61 130 -37 46 -50 94 -29 107 6 3 10
14 10 24 0 31 31 82 56 91 21 8 24 16 24 59 0 27 -4 53 -10 56 -5 3 -10 17
-10 31 0 15 -6 24 -15 24 -9 0 -20 11 -25 24 -5 13 -21 30 -37 38 -15 7 -37
32 -49 55 -11 23 -27 49 -34 58 -8 10 -24 46 -36 81 -19 56 -19 66 -7 84 18
25 65 50 95 50 33 0 73 29 59 43 -7 7 -11 60 -11 138 0 75 -4 130 -10 134 -14
9 -12 88 3 116 7 13 26 44 42 68 17 24 35 52 41 62 21 37 47 59 69 59 27 0 45
18 45 45 0 12 4 25 9 30 5 6 11 26 13 45 3 32 6 35 31 32 26 -3 27 -1 27 47 0
41 -4 51 -20 56 -11 3 -20 12 -20 19 0 7 -13 25 -30 41 -26 25 -30 36 -30 81
0 29 -4 56 -10 59 -5 3 -10 32 -10 64 0 102 53 181 123 181 12 0 36 11 52 24
26 22 29 27 18 45 -7 11 -13 39 -13 60 0 22 -4 43 -10 46 -5 3 -10 14 -10 24
0 26 -26 74 -55 101 -14 13 -25 30 -25 37 0 8 -9 31 -20 53 -21 41 -27 124
-10 135 6 3 10 19 10 35 0 16 5 32 10 35 15 9 12 91 -4 104 -32 27 -60 171
-36 186 6 3 10 15 10 26 0 21 87 119 106 119 6 0 14 9 17 20 3 11 11 20 19 20
7 0 19 12 26 27 14 32 16 189 2 198 -5 3 -10 44 -10 90 0 46 -4 87 -10 90 -5
3 -10 17 -10 30 0 13 -4 27 -10 30 -5 3 -10 28 -10 55 0 27 -4 52 -10 55 -5 3
-10 21 -10 40 0 19 5 37 10 40 6 3 10 15 10 25 0 11 9 35 20 55 11 20 20 42
20 50 0 8 9 30 19 48 12 22 16 39 10 48 -5 8 -9 28 -9 46 0 17 -4 35 -10 38
-5 3 -10 19 -10 35 0 16 -9 45 -20 65 -25 44 -28 136 -5 155 19 16 45 68 45
91 0 10 5 21 10 24 6 3 10 46 10 95 0 49 -4 92 -10 95 -6 4 -10 69 -10 161 0
134 3 160 20 193 44 87 61 163 40 176 -6 4 -10 23 -9 43 1 20 -6 57 -15 82 -8
25 -16 55 -16 67 0 12 -4 25 -10 28 -20 12 -11 108 13 145 12 19 33 60 46 90
13 30 32 72 42 93 20 42 25 102 9 112 -6 4 -10 68 -10 160 0 92 4 156 10 160
6 4 10 63 10 145 0 123 -2 144 -21 177 -12 21 -27 45 -34 53 -21 25 -55 98
-55 119 0 11 -4 23 -10 26 -5 3 -10 19 -10 35 0 16 5 32 10 35 6 3 10 15 10
25 0 20 20 45 84 108 72 70 85 131 41 196 -41 61 -55 93 -55 130 0 19 -4 38
-10 41 -5 3 -10 32 -10 64 0 46 4 62 20 76 12 10 48 59 80 107 54 79 60 94 60
139 0 44 -4 55 -34 85 -56 56 -66 78 -66 147 0 62 1 63 48 110 39 39 54 47 84
47 20 0 40 -5 43 -10 9 -14 128 -13 143 2 7 7 12 24 12 38 0 14 5 31 10 36 7
7 9 69 6 180 -6 212 -6 187 0 334 3 69 9 129 15 135 12 12 12 52 -1 60 -6 4
-10 62 -10 141 0 74 -4 142 -9 152 -19 36 -33 100 -26 121 4 14 0 31 -10 48
-13 19 -16 38 -12 72 5 40 1 51 -24 86 -16 22 -37 52 -47 67 -9 16 -22 28 -28
28 -6 0 -19 9 -29 20 -10 11 -23 20 -30 20 -7 0 -20 9 -30 20 -10 11 -24 20
-31 20 -33 0 -72 128 -44 145 6 3 10 25 10 49 0 36 6 47 43 83 56 54 76 63
140 63 43 0 60 5 83 25 16 14 32 25 37 25 4 0 7 17 7 38 0 21 5 43 11 49 13
13 7 116 -10 181 -21 79 -32 127 -33 142 0 8 -7 24 -14 35 -19 27 -18 139 1
169 9 13 15 28 14 32 -1 5 1 17 5 26 8 18 3 128 -7 163 -3 11 -18 43 -33 70
-15 28 -28 64 -29 80 -3 32 43 132 70 155 21 18 45 64 45 88 0 10 9 27 20 37
16 14 20 31 20 76 0 32 -4 61 -10 64 -5 3 -10 30 -10 60 0 30 -4 57 -10 60 -5
3 -10 21 -10 39 0 20 -8 40 -20 51 -12 11 -19 29 -18 46 1 15 -4 34 -11 42
-10 13 -6 22 25 56 21 24 45 41 58 41 27 0 86 59 86 86 0 11 5 25 12 32 9 9 9
15 0 24 -7 7 -12 19 -12 28 0 29 -57 124 -99 165 -35 33 -41 45 -41 80 0 61
21 95 116 188 53 53 84 91 84 105 0 11 5 24 10 27 6 4 10 55 10 120 0 65 -4
116 -10 120 -6 3 -10 48 -10 100 0 76 4 101 20 127 11 18 22 52 26 75 3 24 10
46 15 49 5 3 9 25 9 49 0 24 5 47 10 50 6 3 10 44 10 90 0 46 -4 87 -10 90 -5
3 -10 42 -10 85 0 43 5 82 10 85 6 3 10 46 10 94 0 49 5 92 11 98 15 15 0 249
-20 298 -24 59 -31 100 -31 183 0 50 5 94 10 97 6 3 10 16 10 28 0 12 9 37 20
55 30 48 26 110 -10 182 -45 89 -41 144 19 293 6 15 11 64 11 108 0 45 5 88
12 99 10 15 10 26 0 53 -7 18 -12 61 -12 95 0 33 -4 64 -10 67 -5 3 -10 35
-10 70 0 35 -4 67 -10 70 -12 8 -13 49 -1 73 12 23 26 60 40 103 14 44 15 235
1 244 -5 3 -10 34 -10 69 0 34 -5 67 -11 73 -16 16 3 258 22 277 12 13 11 53
-1 61 -5 3 -10 44 -10 89 0 63 -4 87 -15 96 -36 30 -47 75 -41 172 16 246 17
301 7 311 -14 14 -14 90 0 104 8 8 8 17 0 31 -14 26 -15 209 -1 217 6 3 10 17
10 30 0 13 5 27 10 30 14 9 12 71 -2 95 -10 16 -10 24 0 41 10 15 11 24 3 32
-15 15 -13 107 2 134 7 12 24 31 40 43 21 16 27 30 27 58 0 20 9 52 20 70 11
18 20 46 20 62 0 16 5 32 10 35 6 3 10 24 10 45 0 22 10 56 22 77 12 21 23 58
24 83 4 64 15 119 25 126 5 3 9 20 9 38 0 17 4 36 9 42 5 5 12 50 14 99 8 140
23 229 49 275 33 61 42 76 57 94 30 36 61 111 61 147 0 21 5 41 10 44 6 3 10
24 10 45 0 21 5 42 10 45 6 4 10 58 10 130 0 106 3 130 20 160 16 29 20 54 20
130 0 52 -4 97 -10 100 -6 3 -10 52 -10 110 0 58 4 107 10 110 6 3 10 24 10
46 0 39 11 66 41 104 30 38 49 120 49 217 0 57 -5 99 -11 105 -7 7 -14 61 -17
125 -4 97 -2 115 12 127 9 7 16 19 16 25 0 7 16 28 35 46 20 19 42 48 50 64
17 33 20 161 5 171 -6 4 -10 75 -10 179 0 171 0 173 25 196 14 13 41 55 60 94
l35 71 0 196 c0 185 1 198 23 242 13 25 29 52 34 59 25 30 53 90 53 113 0 13
9 40 19 58 20 35 28 87 37 222 3 44 10 84 15 90 5 5 9 40 9 79 0 65 10 117 31
158 5 10 9 33 9 52 0 19 5 38 10 41 6 3 10 30 10 60 0 30 5 57 10 60 6 3 10
17 10 30 0 13 -4 27 -10 30 -6 4 -10 79 -10 191 0 183 0 185 -27 227 -15 23
-42 71 -61 107 -19 36 -38 69 -43 74 -5 6 -9 24 -9 41 0 22 -10 41 -34 64 -30
29 -34 38 -29 70 4 34 15 65 34 103 5 10 9 29 9 43 0 21 20 75 51 137 5 10 9
44 9 76 0 55 -2 60 -42 99 -48 45 -77 63 -106 63 -25 0 -60 18 -98 50 l-29 25
3 109 c2 61 -1 118 -6 130 -12 23 -21 62 -29 118 -4 27 -15 45 -39 65 -21 16
-34 35 -34 49 0 13 -4 26 -10 29 -5 3 -10 26 -10 50 0 24 -4 47 -10 50 -5 3
-10 35 -10 70 0 35 -4 67 -10 70 -5 3 -10 17 -10 30 0 13 -4 27 -10 30 -5 3
-10 37 -10 75 0 38 -4 72 -10 75 -5 3 -10 25 -10 47 0 25 -7 49 -17 60 -9 10
-21 28 -27 40 -13 26 -68 65 -150 108 -60 31 -90 52 -157 109 -22 19 -42 31
-46 28 -3 -4 -15 -1 -27 5 -13 7 -67 10 -143 9 -100 -2 -128 1 -151 15 -27 15
-31 15 -54 0 -13 -9 -27 -13 -30 -10 -4 3 -16 0 -29 -6 -24 -13 -189 -17 -208
-6 -6 4 -11 32 -11 61 0 75 -53 171 -75 136z m-6336 -27000 c-26 -35 -37 -38
-46 -14 -4 11 3 24 22 40 38 33 55 15 24 -26z m12281 -1441 c0 -6 -11 -33 -25
-60 l-25 -50 -52 0 c-34 0 -58 6 -70 17 -23 21 -23 40 0 47 11 4 29 18 42 31
19 21 33 25 77 25 30 0 53 -5 53 -10z m-1544 -195 c10 -20 8 -27 -12 -46 -19
-18 -27 -20 -36 -11 -7 7 -20 12 -30 12 -32 0 -23 45 14 63 37 18 49 15 64
-18z m-488 -1319 c4 -33 -25 -69 -75 -93 -40 -19 -58 -13 -67 23 -9 36 17 72
64 89 54 20 74 15 78 -19z m1260 -477 c5 -25 -41 -69 -72 -69 -23 0 -26 4 -26
33 0 18 6 39 12 45 18 18 82 11 86 -9z m-508 -109 c0 -23 -38 -28 -58 -8 -20
20 -14 28 23 28 28 0 35 -4 35 -20z m-1501 -424 c9 -11 9 -20 0 -38 -7 -13
-15 -30 -19 -38 -11 -23 -61 -25 -77 -4 -18 24 -17 28 13 63 28 33 64 40 83
17z m-5019 -2312 c0 -16 -26 -19 -35 -4 -3 6 -4 14 0 20 8 13 35 1 35 -16z"/>
<path d="M37116 34082 c-15 -18 -15 -20 3 -36 22 -20 41 -14 41 13 0 31 -24
44 -44 23z"/>
<path d="M37055 34009 c-10 -15 3 -25 16 -12 7 7 7 13 1 17 -6 3 -14 1 -17 -5z"/>
<path d="M43355 33169 c-4 -6 -4 -13 -1 -16 8 -8 36 5 36 17 0 13 -27 13 -35
-1z"/>
<path d="M43420 31885 c-7 -8 -20 -15 -29 -15 -10 0 -26 -6 -36 -14 -19 -14
-19 -15 -2 -33 9 -11 17 -33 17 -50 0 -16 3 -33 7 -37 11 -11 73 56 73 80 0
13 5 26 10 29 6 3 10 17 10 31 0 28 -30 33 -50 9z"/>
<path d="M25602 25940 c0 -14 2 -19 5 -12 2 6 2 18 0 25 -3 6 -5 1 -5 -13z"/>
<path d="M25330 21935 c0 -22 4 -34 10 -30 6 3 10 17 10 30 0 13 -4 27 -10 30
-6 4 -10 -8 -10 -30z"/>
<path d="M42280 16260 c0 -5 5 -10 10 -10 6 0 10 5 10 10 0 6 -4 10 -10 10 -5
0 -10 -4 -10 -10z"/>
<path d="M41650 13151 c0 -6 5 -13 10 -16 6 -3 10 1 10 9 0 9 -4 16 -10 16 -5
0 -10 -4 -10 -9z"/>
<path d="M41743 12463 c-19 -41 -16 -97 6 -117 18 -17 20 -17 40 3 15 15 21
33 21 64 -1 71 -43 103 -67 50z"/>
<path d="M41844 11959 c-3 -6 -1 -16 5 -22 6 -6 11 -20 11 -32 0 -21 17 -45
32 -45 12 0 9 53 -4 83 -13 28 -32 35 -44 16z"/>
<path d="M41782 11298 c-7 -7 -12 -22 -12 -34 0 -13 -4 -25 -10 -29 -13 -8 -1
-35 16 -35 18 0 34 32 34 69 0 34 -11 46 -28 29z"/>
<path d="M48439 9267 c-9 -6 -23 -25 -33 -40 -13 -22 -15 -31 -6 -42 17 -21
69 -45 96 -45 13 0 26 -4 29 -10 9 -15 225 -13 258 3 21 9 37 27 24 27 -1 0
-27 9 -57 20 -30 11 -63 20 -72 20 -10 0 -37 8 -60 19 -143 63 -157 67 -179
48z"/>
<path d="M15485 7361 c-3 -5 -1 -12 5 -16 5 -3 10 1 10 9 0 18 -6 21 -15 7z"/>
<path d="M15920 6761 c0 -6 5 -13 10 -16 6 -3 10 1 10 9 0 9 -4 16 -10 16 -5
0 -10 -4 -10 -9z"/>
<path d="M16885 6089 c-4 -6 -5 -13 -2 -16 7 -7 27 6 27 18 0 12 -17 12 -25
-2z"/>
<path d="M23935 5920 c-3 -5 1 -10 9 -10 9 0 16 5 16 10 0 6 -4 10 -9 10 -6 0
-13 -4 -16 -10z"/>
<path d="M19280 4416 c0 -10 9 -16 21 -16 24 0 21 23 -4 28 -10 2 -17 -3 -17
-12z"/>
<path d="M22803 3237 c4 -14 26 -16 30 -3 1 5 -6 10 -16 12 -10 1 -16 -3 -14
-9z"/>
<path d="M21600 3005 c7 -8 19 -15 27 -15 13 0 13 3 3 15 -7 8 -19 15 -27 15
-13 0 -13 -3 -3 -15z"/>
</g>
</svg>
