<?xml version="1.0" encoding="iso-8859-1"?>
<!-- Generator: Adobe Illustrator 16.0.0, SVG Export Plug-In . SVG Version: 6.00 Build 0)  -->
<!DOCTYPE svg PUBLIC "-//W3C//DTD SVG 1.1//EN" "http://www.w3.org/Graphics/SVG/1.1/DTD/svg11.dtd">
<svg version="1.1" id="Capa_1" xmlns="http://www.w3.org/2000/svg" xmlns:xlink="http://www.w3.org/1999/xlink" x="0px" y="0px"
	 width="380.721px" height="380.721px" viewBox="0 0 380.721 380.721" style="enable-background:new 0 0 380.721 380.721;"
	 xml:space="preserve">
<g>
	<g>
		<path d="M264.412,147.72c-27.014-36.93-54.944-75.132-57.594-112.3L204.309,0l-25.456,24.748
			c-46.365,45.045-115.13,161.197-115.13,229.329c0,69.852,56.81,126.645,126.638,126.645c69.834,0,126.638-56.793,126.638-126.645
			C316.998,219.604,291.448,184.685,264.412,147.72z M190.36,347.701c-51.622,0-93.623-41.989-93.623-93.624
			c0-45.51,43.163-130.698,84.357-182.395c11.717,34.066,35.263,66.267,56.664,95.529c23.771,32.491,46.207,63.188,46.207,86.866
			C283.966,305.711,241.977,347.701,190.36,347.701z"/>
		<path d="M163.533,300.831c-2.835-2.939-5.438-6.332-8.011-9.853c-2.736-3.718-4.647-6.913-6.913-11.271l-1.807-3.438l-0.918-1.731
			l-0.221-0.418l-0.063-0.104c-0.215-0.384,0.25,0.441,0.203,0.349l-0.012-0.047l-0.069-0.186l-0.297-0.768l-2.486-6.146
			c-0.563-2.149-1.29-4.241-1.94-6.367c-0.441-2.185-0.871-4.38-1.405-6.542c-0.628-4.426-1.249-8.864-1.511-13.291
			c-0.296-8.854,0.146-17.475,0.831-25.05c1.586-15.093,3.416-26.119,3.416-26.119s-8.72,7.343-15.906,22.54
			c-1.894,3.765-3.509,8.041-4.915,12.699c-0.627,2.371-1.284,4.799-1.952,7.285c-0.377,2.568-0.761,5.193-1.162,7.877
			c-0.192,2.719-0.384,5.508-0.575,8.32c0.023,2.834,0.261,5.727,0.418,8.644c0.727,5.833,1.999,11.735,4.09,17.451
			c1.109,2.812,2.405,5.577,3.741,8.284l0.5,1.011l0.471,0.884l0.267,0.418l1.022,1.661l2.057,3.288
			c3.091,4.461,7.175,9.527,10.898,13.223c3.84,3.938,8.22,7.029,12.374,9.817c4.177,2.753,8.574,4.589,12.577,6.146
			c8.121,2.951,15.249,3.625,20.117,3.556c4.915-0.104,7.575-0.849,7.575-0.849s-10.445-4.101-21.854-13.326
			C169.156,306.524,166.432,303.667,163.533,300.831z"/>
	</g>
</g>
<g>
</g>
<g>
</g>
<g>
</g>
<g>
</g>
<g>
</g>
<g>
</g>
<g>
</g>
<g>
</g>
<g>
</g>
<g>
</g>
<g>
</g>
<g>
</g>
<g>
</g>
<g>
</g>
<g>
</g>
</svg>
